<?xml version="1.0" encoding="utf-8"?>
<!-- Generator: Adobe Illustrator 19.2.1, SVG Export Plug-In . SVG Version: 6.00 Build 0)  -->
<svg version="1.1" id="Layer_1" xmlns="http://www.w3.org/2000/svg" xmlns:xlink="http://www.w3.org/1999/xlink" x="0px" y="0px"
	 viewBox="0 0 960 560" style="enable-background:new 0 0 960 560;" xml:space="preserve">
<style type="text/css">
	.st0{fill:none;}
	.st1{fill:#FFFFFF;}
	.st2{fill:#040404;}
	.st3{fill:none;stroke:#000000;stroke-width:2;stroke-miterlimit:10;}
</style>
<path class="st0" d="M509.3,275.9c-2.5-2.9-4.6-4.9-8.1-3.1s-8.1,5.8-8.4,7s-2.9,7.4,3.5,9.9l0.8,1.3c0,0-8.2,0-6.9-10.4
	c0,0-3.1,0.5-3.6,2.6s0.3,8.8,6.9,9.1c2.3,0.1,3.7,0.2,4.6,0.3c5.4-3.9,11.3-8.3,11.3-8.3S511.8,278.8,509.3,275.9z"/>
<path class="st0" d="M576.5,282c0.1,0,0.2,0,0.3,0.1C576.7,282,576.6,282,576.5,282L576.5,282z"/>
<path class="st0" d="M579.6,282.9c7.1,3.2,13.6,13.3,15,15.6l0.1,0.1C593.9,297.3,587.1,286.3,579.6,282.9z"/>
<path class="st0" d="M633.8,313.3c-0.8,0.2-1.8,0.5-2.9,0.7l8.2,7.4L633.8,313.3z"/>
<path class="st0" d="M578.7,282.6c-0.2-0.1-0.4-0.1-0.6-0.2C578.3,282.4,578.5,282.5,578.7,282.6z"/>
<path class="st0" d="M752.6,369.6c-9.3-3.5-110.1-53.6-116.7-56.9l13.3,20.4l-20.8-18.7c-3.2,0.5-7.7,0.6-11.3-3
	c-5.6-5.6-8.3-10.3-8.7-11c-8-6.1-29.1-21.7-31.7-22.2l-0.2,0l-5-7.4l-10-4.6c-2.9-1.3-5.1-4-5.7-7.1l-9-3.7l-0.7-2.7l-13.8-4.8
	l-2,1.7l-25-10.3l0.3-2.7l-13.3-6.3l-2,3l-0.4-0.2L241.9,128.7l-4.1,6.5l134.1,60l-0.4,0.5c0,0-3.1,3.7-2.4,7.5
	c0.4,2,1.8,3.8,4.2,5.1l6.3,3.3l156.8,73.7l0.1,0.2c0,0,1.4,3.8,7.6,5.3l0.6,0.2l-1.5,2.7c1.7,1,7.9,5.1,8.6,11.1l0,0.1l0,0.1
	c-0.1,0.3-1.9,7.8,4.5,11.8l0.1,0.1c0.1,0.1,2.5,3.4,2.4,5.7c0.2,0.5,1.2,2.8,3.9,2.6c3.8-0.3,15,9.9,15.5,13.3c0.4,3,0.7,8,0.8,9.1
	c0.1,0.1,0.4,0.3,0.7,0.2c0.4-0.1,1.3-0.5,2.5-3.5c1.9-4.7,2.5-7.6,2.7-8.4c-3.1-3.5-6.7-7.2-7.5-7.3c-0.2,0-0.7-0.1-5.8-3.7
	c-1.1,0-1.8-0.2-1.9-0.2l-0.1-0.1l-3-1.9l0-0.4c0.1-0.2,0.2-0.4,0.6-0.5l-0.1-0.1h0c-5.1-3.7-10.3-7.5-10.3-7.6l-0.1-0.1l-0.1-0.1
	c-0.1-0.2-2.5-5.9,0.1-9c2.6-3,4.9-5.1,8.7-3.2c3.4,1.7,8.2,5.8,8.7,7.3l0.1,0.2c2.1,6.3-0.8,9.1-3.7,10.2l-0.2,0.3
	c1-0.2,2.6-0.7,3.9-2.1c1.5-1.7,2.1-4.3,1.7-7.6l-0.1-0.7l0.7,0.1c0.1,0,3.4,0.6,4,2.9c0.4,1.5,0.1,4.6-1.6,6.9
	c-1.3,1.8-3.3,2.7-5.8,2.8c-1.3,0-2.4,0.1-3.2,0.2c0.7,0.5,1.5,1,2.2,1.5c1.9-0.1,5.6-1.1,9.3-6.1l0.2-0.1c0.2-0.1,4.3-2.4,9.2,0
	c5,2.5,12.7,12.1,15.1,18.6c2.2,6.2,2.4,14.7,2.5,16.3c1.1,0.8,6.5,4.3,11.8,4.8c5,0.4,10.4-2.5,11.9-3.4l-0.3-0.4l6.5-4.3
	c-1.8-3.9-12-25.3-32.6-44.8l3.6,7l-5-0.7l0.3-2l1.2,0.2l-6.8-13.2l4,3.5c26.1,22.8,37.5,49.8,37.6,50l0.3,0.8l-6,4l94.6,81.9
	l29.7-57.8c0-0.1,0.8-1.6,0.1-3.5C758.3,372.6,756.1,370.9,752.6,369.6z M565,299.9l-1.8-0.8l9-19.2l-27.7-14.8l-7.3,16.1l-1-0.5
	c-0.2-0.1-4.6-2.6-6.6,0.6l-0.3,0.4l-1.7-1.1l0.3-0.4c2-3.3,6-2.9,8.7-1.5l-0.4,0.9c0.2,0.1,0.3,0.2,0.5,0.2l0,0l7.3-16.1l29.5,15.8
	l-29.7-15.9l-0.3-0.1l-0.4,0.9l-168.2-72.1l0.8-1.8l167.8,71.9l0,0l0.5,0.2l30.8,16.4L565,299.9z M590.2,311.8l-1.8-0.8l5.2-12.2
	c-1.5-2.4-9.9-15.3-17.7-15.8l-0.5,0l0.1-2l0.5,0c9.7,0.7,19.1,16.6,19.5,17.2l0.3,0.4L590.2,311.8z"/>
<path class="st0" d="M577.8,282.3c-0.2,0-0.4-0.1-0.5-0.1C577.5,282.2,577.6,282.2,577.8,282.3z"/>
<path class="st0" d="M578.1,318.8c1.6-2.2,1.7-5,1.4-6c-0.3-1.2-1.7-1.8-2.5-2c0.3,3.3-0.4,5.9-2,7.7c-2.2,2.5-5.4,2.5-5.5,2.5h-0.9
	l1.3-2.2l0.2-0.1c5.6-2.2,3.9-7.4,3.3-9.1l-0.1-0.3c-0.3-0.9-4.6-4.8-8.2-6.7c-3.1-1.6-4.9,0-7.5,2.9c-2.1,2.4-0.4,7,0,7.9
	c0.8,0.6,6.1,4.5,11,8.1c1-0.1,2.5-0.2,4.4-0.3C575.2,321.1,576.9,320.3,578.1,318.8z"/>
<path class="st0" d="M568.3,322.6l1,0.6C569,323,568.7,322.8,568.3,322.6C568.3,322.6,568.3,322.6,568.3,322.6z"/>
<path class="st0" d="M638.2,347.2c-3.1-6.5-12.6-24.2-29.8-41.2C625.7,323,635.2,340.8,638.2,347.2z"/>
<polygon class="st0" points="637.5,321.3 644.2,327.2 634.8,313 634.8,313 644.1,327.2 "/>
<polygon class="st0" points="607.4,310.3 607.4,310.3 602.1,300.1 602.1,300.1 "/>
<path class="st0" d="M579.6,282.9c-0.2-0.1-0.5-0.2-0.7-0.3C579.1,282.7,579.3,282.8,579.6,282.9z"/>
<path class="st1" d="M579.6,282.9C579.6,282.9,579.6,282.9,579.6,282.9C579.6,282.9,579.6,282.9,579.6,282.9z"/>
<path class="st1" d="M577.3,282.1c-0.2,0-0.3-0.1-0.5-0.1C577,282.1,577.1,282.1,577.3,282.1z"/>
<path class="st0" d="M752.6,369.6c-9.3-3.5-110.1-53.6-116.7-56.9l13.3,20.4l-20.8-18.7c-3.2,0.5-7.7,0.6-11.3-3
	c-5.6-5.6-8.3-10.3-8.7-11c-8-6.1-29.1-21.7-31.7-22.2l-0.2,0l-5-7.4l-10-4.6c-2.9-1.3-5.1-4-5.7-7.1l-9-3.7l-0.7-2.7l-13.8-4.8
	l-2,1.7l-25-10.3l0.3-2.7l-13.3-6.3l-2,3l-0.4-0.2L241.9,128.7l-4.1,6.5l134.1,60l-0.4,0.5c0,0-3.1,3.7-2.4,7.5
	c0.4,2,1.8,3.8,4.2,5.1l6.3,3.3l156.8,73.7l0.1,0.2c0,0,1.4,3.8,7.6,5.3l0.6,0.2l-1.5,2.7c1.7,1,7.9,5.1,8.6,11.1l0,0.1l0,0.1
	c-0.1,0.3-1.9,7.8,4.5,11.8l0.1,0.1c0.1,0.1,2.5,3.4,2.4,5.7c0.2,0.5,1.2,2.8,3.9,2.6c3.8-0.3,15,9.9,15.5,13.3c0.4,3,0.7,8,0.8,9.1
	c0.1,0.1,0.4,0.3,0.7,0.2c0.4-0.1,1.3-0.5,2.5-3.5c1.9-4.7,2.5-7.6,2.7-8.4c-3.1-3.5-6.7-7.2-7.5-7.3c-0.2,0-0.7-0.1-5.8-3.7
	c-1.1,0-1.8-0.2-1.9-0.2l-0.1-0.1l-3-1.9l0-0.4c0.1-0.2,0.2-0.4,0.6-0.5l-0.1-0.1h0c-5.1-3.7-10.3-7.5-10.3-7.6l-0.1-0.1l-0.1-0.1
	c-0.1-0.2-2.5-5.9,0.1-9c2.6-3,4.9-5.1,8.7-3.2c3.4,1.7,8.2,5.8,8.7,7.3l0.1,0.2c2.1,6.3-0.8,9.1-3.7,10.2l-0.2,0.3
	c1-0.2,2.6-0.7,3.9-2.1c1.5-1.7,2.1-4.3,1.7-7.6l-0.1-0.7l0.7,0.1c0.1,0,3.4,0.6,4,2.9c0.4,1.5,0.1,4.6-1.6,6.9
	c-1.3,1.8-3.3,2.7-5.8,2.8c-1.3,0-2.4,0.1-3.2,0.2c0.7,0.5,1.5,1,2.2,1.5c1.9-0.1,5.6-1.1,9.3-6.1l0.2-0.1c0.2-0.1,4.3-2.4,9.2,0
	c5,2.5,12.7,12.1,15.1,18.6c2.2,6.2,2.4,14.7,2.5,16.3c1.1,0.8,6.5,4.3,11.8,4.8c5,0.4,10.4-2.5,11.9-3.4l-0.3-0.4l6.5-4.3
	c-1.8-3.9-12-25.3-32.6-44.8l3.6,7l-5-0.7l0.3-2l1.2,0.2l-6.8-13.2l4,3.5c26.1,22.8,37.5,49.8,37.6,50l0.3,0.8l-6,4l94.6,81.9
	l29.7-57.8c0-0.1,0.8-1.6,0.1-3.5C758.3,372.6,756.1,370.9,752.6,369.6z M565,299.9l-1.8-0.8l9-19.2l-27.7-14.8l-7.3,16.1l-1-0.5
	c-0.2-0.1-4.6-2.6-6.6,0.6l-0.3,0.4l-1.7-1.1l0.3-0.4c2-3.3,6-2.9,8.7-1.5l-0.4,0.9c0.2,0.1,0.3,0.2,0.5,0.2l0,0l7.3-16.1l29.5,15.8
	l-29.7-15.9l-0.3-0.1l-0.4,0.9l-168.2-72.1l0.8-1.8l167.8,71.9l0,0l0.5,0.2l30.8,16.4L565,299.9z M590.2,311.8l-1.8-0.8l5.2-12.2
	c-1.5-2.4-9.9-15.3-17.7-15.8l-0.5,0l0.1-2l0.5,0c9.7,0.7,19.1,16.6,19.5,17.2l0.3,0.4L590.2,311.8z"/>
<path class="st0" d="M579.6,282.9c7.1,3.2,13.6,13.3,15,15.6l0.1,0.1C593.9,297.3,587.1,286.3,579.6,282.9z"/>
<path class="st0" d="M633.8,313.3c-0.8,0.2-1.8,0.5-2.9,0.7l8.2,7.4L633.8,313.3z"/>
<polygon class="st0" points="637.5,321.3 644.2,327.2 634.8,313 634.8,313 644.1,327.2 "/>
<path class="st0" d="M576.5,282c0.1,0,0.2,0,0.3,0.1C576.7,282,576.6,282,576.5,282L576.5,282z"/>
<path class="st0" d="M578.1,318.8c1.6-2.2,1.7-5,1.4-6c-0.3-1.2-1.7-1.8-2.5-2c0.3,3.3-0.4,5.9-2,7.7c-2.2,2.5-5.4,2.5-5.5,2.5h-0.9
	l1.3-2.2l0.2-0.1c5.6-2.2,3.9-7.4,3.3-9.1l-0.1-0.3c-0.3-0.9-4.6-4.8-8.2-6.7c-3.1-1.6-4.9,0-7.5,2.9c-2.1,2.4-0.4,7,0,7.9
	c0.8,0.6,6.1,4.5,11,8.1c1-0.1,2.5-0.2,4.4-0.3C575.2,321.1,576.9,320.3,578.1,318.8z"/>
<path class="st0" d="M568.3,322.6l1,0.6C569,323,568.7,322.8,568.3,322.6C568.3,322.6,568.3,322.6,568.3,322.6z"/>
<path class="st0" d="M638.2,347.2c-3.1-6.5-12.6-24.2-29.8-41.2C625.7,323,635.2,340.8,638.2,347.2z"/>
<polygon class="st0" points="607.4,310.3 607.4,310.3 602.1,300.1 602.1,300.1 "/>
<path class="st0" d="M576.5,282c0.1,0,0.2,0,0.3,0.1C576.7,282,576.6,282,576.5,282L576.5,282z"/>
<path class="st0" d="M536.4,279.1L536.4,279.1L536.4,279.1l-0.2,0.5c0.2,0.1,0.3,0.2,0.5,0.2l0,0l7.3-16.1l29.5,15.8l-29.7-15.9
	l-0.3-0.1l-0.2,0.5l0,0l0,0l-0.2,0.5l0,0l-6.5,14.2c0,0,0,0,0,0L536.4,279.1z"/>
<path class="st0" d="M579.6,282.9c7.1,3.2,13.6,13.3,15,15.6l0.1,0.1C593.9,297.3,587.1,286.3,579.6,282.9z"/>
<path class="st0" d="M568.3,322.6l1,0.6C569,323,568.7,322.8,568.3,322.6C568.3,322.6,568.3,322.6,568.3,322.6z"/>
<path class="st0" d="M578.1,318.8c1.6-2.2,1.7-5,1.4-6c-0.3-1.2-1.7-1.8-2.5-2c0.3,3.3-0.4,5.9-2,7.7c-2.2,2.5-5.4,2.5-5.5,2.5h-0.9
	l1.3-2.2l0.2-0.1c5.6-2.2,3.9-7.4,3.3-9.1l-0.1-0.3c-0.3-0.9-4.6-4.8-8.2-6.7c-3.1-1.6-4.9,0-7.5,2.9c-2.1,2.4-0.4,7,0,7.9
	c0.8,0.6,6.1,4.5,11,8.1c1-0.1,2.5-0.2,4.4-0.3C575.2,321.1,576.9,320.3,578.1,318.8z"/>
<polygon class="st0" points="607.4,310.3 607.4,310.3 602.1,300.1 602.1,300.1 "/>
<path class="st0" d="M638.2,347.2c-3.1-6.5-12.6-24.2-29.8-41.2C625.7,323,635.2,340.8,638.2,347.2z"/>
<polygon class="st0" points="634.8,313 644.1,327.2 637.5,321.3 644.2,327.2 634.8,313 "/>
<polygon points="536.4,279.1 536.4,279.1 536.4,279.1 "/>
<path class="st1" d="M630.9,314l8.2,7.4l-5.3-8.1C633,313.5,632,313.8,630.9,314z"/>
<polygon points="543.3,263.9 543.3,263.9 543.3,263.9 "/>
<polygon class="st1" points="543.3,263.9 543.1,264.4 543.1,264.4 "/>
<polygon class="st1" points="536.7,278.6 536.6,278.6 536.4,279.1 "/>
<path class="st1" d="M578.1,282.3c-0.1,0-0.2,0-0.2-0.1C577.9,282.3,578,282.3,578.1,282.3z"/>
<path class="st1" d="M578.8,282.6c0,0-0.1,0-0.1,0C578.7,282.6,578.8,282.6,578.8,282.6z"/>
<path class="st1" d="M354.6,213.9c4.4,7.7,19.3,13.6,19.3,13.6c-0.6,2.8-0.9,6.5-0.9,9.3c0,4.7,0.5,8.4,0.5,8.4
	c-7.3,2.4-12.4,10.4-12.4,10.4c0,1.5,13.6,9.9,13.6,9.9s-2,4.7-2,12.4c0,2.3,0.4,5,1.3,7.6c-8.8,3.6-13.8,8.6-17.1,13.2h-70.5
	c0.4-2.2,0.6-4.2,0.6-6.5c0-1.7-0.1-3.6-0.3-5.4c0.4,0.4,1,0.5,1.8,0.5c1,0,2.2-0.3,2.7-0.6c5.5-3.8,8.2-16.5,8.2-30.3V253
	c0-6.7-1.2-28-11.9-28h-0.5c0,0-0.4-10.7-0.5-10.7C286.2,214.3,354.6,213.9,354.6,213.9z M323,251.6h9.3c10,0,20.2-2.6,20.2-13.8
	c0-9.1-8.3-13.7-16.4-13.7c-2.3,0-4.9,0.4-7.2,1.4c-8.1,3.3-9.1,14.5-9.9,22c0,0.5-0.1,1.9-0.1,2.7
	C319.1,251.5,320.9,251.6,323,251.6z M352.3,274c0-6.7-7.3-12.9-16.3-12.9c-2.9,0-9.3-0.1-12-0.1c-3.3,0-4.6,0.4-4.6,2.8
	c0,11.9,3.2,23.3,16,23.3C344.9,286.9,352.3,281.1,352.3,274z"/>
<path class="st0" d="M536.8,278.2c0.4,0.3,0.9,0.5,1.3,0.8l4.6-10.1c-0.7,0.3-1.3,0.5-2,0.8L536.8,278.2z"/>
<path class="st0" d="M432.2,299.9l1.8-0.8l-9-19.2l13.3-7.1c-0.3-0.6-0.5-1.2-0.8-1.8l-15.1,8L432.2,299.9z"/>
<path class="st0" d="M374.9,192.3l90.1,38.6c0.2-0.7,0.3-1.4,0.4-2l-89.7-38.4L374.9,192.3z"/>
<path class="st0" d="M548,266.9l24.2,12.9l-9,19.2l1.8,0.8l9.8-20.9l-24.1-12.9l-0.3,0.1C549.6,266.4,548.8,266.7,548,266.9z"/>
<path class="st0" d="M576.1,281l-0.5,0l-0.1,2l0.5,0c7.8,0.5,16.2,13.5,17.7,15.8l-5.2,12.2l1.8,0.8l5.6-13.2l-0.3-0.4
	C595.2,297.5,585.7,281.6,576.1,281z"/>
<path class="st0" d="M504.9,230.4l1.6,2.4c0.6-0.9,1.1-1.9,1.2-3.1c0-1.5-0.4-3.1-1.3-3.1c-1.1,0-2.3,1.3-2.3,4.1L504.9,230.4z"/>
<path class="st1" d="M752.6,369.6c-9.3-3.5-110.1-53.6-116.7-56.9l13.3,20.4l-20.8-18.7c-3.2,0.5-7.7,0.6-11.3-3
	c-5.6-5.6-8.3-10.3-8.7-11c-8-6.1-29.1-21.7-31.7-22.2l-0.2,0l-5-7.4l-10-4.6c-1.2-0.6-2.3-1.3-3.2-2.3l-7.5,2.2l24.1,12.9
	l-9.8,20.9l-1.8-0.8l9-19.2L548,266.9c-1.7,0.5-3.4,1.2-5.3,1.9l-4.6,10.1c2.7,1.5,5.3,2.2,7.9,2.2c0.3,0,0.7,0,0.8,0l8.5-1.7
	l-1.4,8.6c-0.1,0.7-0.2,1-0.2,1.7c0,1.6,0.4,4.1,1.1,7.5l1.6,7.3h-4.6c0,0.1,0,0.2,0.1,0.3l0,0.1l0,0.1c-0.1,0.3-1.9,7.8,4.5,11.8
	l0.1,0.1c0.1,0.1,2.5,3.4,2.4,5.7c0.2,0.5,1.2,2.8,3.9,2.6c3.8-0.3,15,9.9,15.5,13.3c0.4,3,0.7,8,0.8,9.1c0.1,0.1,0.4,0.3,0.7,0.2
	c0.4-0.1,1.3-0.5,2.5-3.5c1.9-4.7,2.5-7.6,2.7-8.4c-3.1-3.5-6.7-7.2-7.5-7.3c-0.2,0-0.7-0.1-5.8-3.7c-1.1,0-1.8-0.2-1.9-0.2
	l-0.1-0.1l-3-1.9l0-0.4c0.1-0.2,0.2-0.4,0.6-0.5l-0.1-0.1h0c-5.1-3.7-10.3-7.5-10.3-7.6l-0.1-0.1l-0.1-0.1c-0.1-0.2-2.5-5.9,0.1-9
	c2.6-3,4.9-5.1,8.7-3.2c3.4,1.7,8.2,5.8,8.7,7.3l0.1,0.2c2.1,6.3-0.8,9.1-3.7,10.2l-0.2,0.3c1-0.2,2.6-0.7,3.9-2.1
	c1.5-1.7,2.1-4.3,1.7-7.6l-0.1-0.7l0.7,0.1c0.1,0,3.4,0.6,4,2.9c0.4,1.5,0.1,4.6-1.6,6.9c-1.3,1.8-3.3,2.7-5.8,2.8
	c-1.3,0-2.4,0.1-3.2,0.2c0.7,0.5,1.5,1,2.2,1.5c1.9-0.1,5.6-1.1,9.3-6.1l0.2-0.1c0.2-0.1,4.3-2.4,9.2,0c5,2.5,12.7,12.1,15.1,18.6
	c2.2,6.2,2.4,14.7,2.5,16.3c1.1,0.8,6.5,4.3,11.8,4.8c5,0.4,10.4-2.5,11.9-3.4l-0.3-0.4l6.5-4.3c-1.8-3.9-12-25.3-32.6-44.8l3.6,7
	l-5-0.7l0.3-2l1.2,0.2l-6.8-13.2l4,3.5c26.1,22.8,37.5,49.8,37.6,50l0.3,0.8l-6,4l94.6,81.9l29.7-57.8c0-0.1,0.8-1.6,0.1-3.5
	C758.3,372.6,756.1,370.9,752.6,369.6z M590.2,311.8l-1.8-0.8l5.2-12.2c-1.5-2.4-9.9-15.3-17.7-15.8l-0.5,0l0.1-2l0.5,0
	c9.7,0.7,19.1,16.6,19.5,17.2l0.3,0.4L590.2,311.8z"/>
<path class="st1" d="M531.2,273.7c2,1.9,3.9,3.4,5.7,4.5l3.9-8.6C537.4,271,534,272.4,531.2,273.7z"/>
<path class="st1" d="M473.1,245.3c-1.6-2.1-3.7-4.4-6.1-6l-3.8-2.5l1.4-4.3c0.2-0.5,0.3-1,0.4-1.5l-90.1-38.6l0.8-1.8l89.7,38.4
	c0.1-1,0.2-1.8,0.2-2.5c0-1.1-0.1-1.8-0.1-1.9l-0.4-1.8l-223.1-94l-4.1,6.5l134.1,60l-0.4,0.5c0,0-3.1,3.7-2.4,7.5
	c0.4,2,1.8,3.8,4.2,5.1l6.3,3.3l76.4,35.9c0.8,0.1,1.7,0.1,2.4,0.1C462.8,247.7,467.5,246.9,473.1,245.3z"/>
<path class="st1" d="M644.8,259.6c1.3,20.1,8.6,27.8,19.6,27.8c5.6,0,12.4-3.7,12.4-10.5c0-4.1-3.8-6.9-9.1-6.9
	c-1.4,0-2.7,0.3-4.2,0.6c0.6-3.6,0.9-5.8,0.9-7.8c0-1.4-0.1-2.8-0.4-4.6c7,0.6,16.9,1.5,24.7,1.5c5.6,0,12-0.4,22-1.4
	c-0.9,2.9-1.3,5.5-1.3,7.6c0,1.8,0.3,3.2,0.6,4.1l-6.1,0.3c-3.8,2.8-5.2,10.4-5.2,17.4c0,4.4,0.6,8.4,1.4,11h-9.5
	c-2.2-5.1-5.4-5.9-5.4-5.9c-1.2,0-4.7,4.6-5.6,5.9h-39.2c-6.8-11.8-15.7-17-21.2-18.2c2.6-3.7,4-11.4,4-23.2v-5.9
	c0-9.5-3.1-18.3-3.1-18.3c10.2-4,15.4-9.7,21.4-18.8h29.7c0,0,4.4,5.2,8.1,7.8c1.3-1.2,7.4-8.1,7.4-8.3h14.2
	c-2,5.6-2.7,10.9-2.7,15.5c0,7.2,1.8,12.5,1.8,12.5c-4.7-0.3-7.7-0.4-10-0.4c-2.6,0-4.4,0.1-6.9,0.6v-0.9c0-6.1-1.4-16.1-14.8-16.1
	h-1c-21.4,1-22.7,23.4-22.7,29.2v1.3L644.8,259.6z"/>
<rect x="409.7" y="376.7" class="st1" width="177.5" height="3"/>
<g>
	<path class="st1" d="M372.2,391.1c0,0,2.6,4.1,5.2,4.8c0,0-0.9,2.1-0.9,4.9v0.5c0,0.3,0,0.6,0,1c0,1.9,0.1,3.9,0.8,5.4
		c-2.8,0.9-4.5,2.8-4.8,4.4h-11.2c-2.2-3.4-4.9-4.7-4.9-4.7c0.8-1.8,1-3.9,1.1-6.1c0-1.9-0.2-3.6-0.9-5.5c2.4-0.8,5.2-4.1,5.2-4.7
		H372.2z M366.9,393.8c-4,0-4.2,6.3-4.2,7.4v0.5c0,3.5,0.8,8,4.1,8c3.1,0,4.1-4.5,4.1-8v-0.7C371,399.3,370.7,393.8,366.9,393.8z"/>
	<path class="st1" d="M394.8,391c-0.1,0.2-0.2,1-0.2,1.7c0,0.4,0,0.9,0.1,1.2c0,0-0.8,0-1.7,0.8c-1.5,1.2-1.5,5.9-1.5,6.6v0.5
		c0,3.2,0.5,7.8,4.7,7.8c2.5-0.2,4.5-2.3,4.5-8.3c0,0-0.2-6.9-2.2-7.6c-0.3-0.1-0.7-0.1-1-0.1c0-0.2,0.1-0.6,0.1-1.3
		c0-0.4,0-0.8-0.2-1.4c1.8,0,10,0,10.1,0c-0.1,0.6-0.2,1-0.2,1.5c0,0.7,0.1,1.2,0.1,1.2c0,0.1-1,0-1.6,0.7c-0.7,0.8-1.6,2.5-1.6,6.9
		c0,4.3,0.8,6.3,0.8,6.3c-3.6,0.6-4.9,4.5-4.9,4.5h-9.7c-2-3.6-5.5-4.5-5.5-4.5c0.7-2.3,0.9-4.9,0.9-7.6v-0.7c0-2.5-0.4-5.3-2.8-5.3
		c0-0.3,0.1-0.6,0.1-0.9c0-0.7-0.1-1.5-0.3-2H394.8z"/>
	<path class="st1" d="M415.8,391.1c2.9,0,8.5-0.1,13.7-0.1c5.9,0,11.3,0.1,11.3,0.1s-0.4,1.7-0.4,3.9c0,1.1,0.1,2.2,0.3,3.4
		c0,0-1.3-0.2-2.8-0.2c-0.5,0-1,0-1.5,0.1c0,0,0.2-0.5,0.2-1.2c0-1.4-0.4-3.7-3.1-3.7c-3.2,0-3.5,5.4-3.5,7.3v0.7
		c0.1,4.4,0.2,7.9,3.1,8c0,0.2-0.1,0.6-0.1,1.1c0,0.4,0,1,0.1,1.5h-11.7c0.1-0.2,0.2-0.9,0.2-1.7c0-0.5,0-1-0.1-1.4
		c2.5,0,3.5-3.2,3.5-6v-2.3c0-2-0.3-6.9-3.3-6.9h-0.2c-3,0.2-3.3,2.8-3.3,4.2c0,0.4,0.1,1,0.1,1c-0.9-0.2-1.8-0.3-2.5-0.3
		c-1.1,0-1.9,0.2-1.9,0.2s0.4-1.6,0.4-3.9c0-1.1-0.1-2.5-0.4-3.8C413.8,391.1,414.6,391.1,415.8,391.1z"/>
	<path class="st1" d="M450.9,400c0-2.2-0.2-6.2-3-6.2c0-0.3,0-0.7,0-1.1c0-0.8-0.1-1.6-0.2-1.7c0.1,0,2.4,0,5.4,0
		c6.2,0,15.6,0,15.6,0c0,0-0.4,2-0.4,4.4c0,1,0.1,2.1,0.2,3.1c-0.7-0.2-1.5-0.3-2.2-0.3c-0.7,0-1.3,0.1-1.8,0.3c0,0,0-0.4,0-0.6
		c0-1.1-0.4-4.4-4.4-4.4c-3.8,0-4.2,3.8-4.2,5.7c0,0.5,0,0.8,0,0.8s1,0.1,2.1,0.1c0.3,0,0.7,0,1,0c1-0.1,1.5-0.1,1.5-0.1l-0.1,1.4
		c0,0.4-0.1,0.8-0.1,1.2c0,0.4,0,0.7,0.1,1c-0.5-0.2-1.3-0.2-2-0.2c-0.8,0-1.7,0.1-2.5,0.3v0.7c0,2.3,0.3,5,3.1,5
		c-0.1,0.3-0.1,0.6-0.1,1c0,0.5,0.1,1.1,0.2,1.9h-11.6c0.1-0.7,0.2-1.2,0.2-1.6c0-0.4-0.1-0.6-0.1-0.8c0,0,0-0.1,0-0.1
		c0.2,0.1,0.4,0.1,0.5,0.1c1.8,0,2.6-3.6,2.6-8.4C450.9,401.3,450.9,400.9,450.9,400z"/>
	<path class="st1" d="M486,391.1c-0.1,0.5-0.2,1-0.2,1.4c0,0.7,0.1,1.2,0.1,1.2c-0.9,0-1.7,0.6-2.2,1.3c-0.7,1.2-0.8,5.1-0.8,6v0.7
		c0,3.8,0.3,7.4,3.2,7.4c-0.1,0.3-0.1,0.6-0.1,1.1c0,0.6,0.1,1.3,0.1,1.7c0,0.1,0,0.1,0,0.2h-11.3c0.1-0.3,0.2-1.1,0.2-1.8
		c0-0.4,0-0.7-0.1-0.9c0.1,0,0.3,0,0.4,0c2.4,0,2.4-5.1,2.4-7.6v-0.5c0,0,0-0.5,0-1.3c0-2-0.1-5.9-2-6.2c-0.4-0.1-0.9-0.1-0.9-0.1
		c0-0.3,0-0.5,0-0.7c0-1.2-0.2-1.9-0.2-1.9H486z"/>
	<path class="st1" d="M494.8,391.1c2.9,0,8.5-0.1,13.7-0.1c5.9,0,11.3,0.1,11.3,0.1s-0.4,1.7-0.4,3.9c0,1.1,0.1,2.2,0.3,3.4
		c0,0-1.3-0.2-2.8-0.2c-0.5,0-1,0-1.5,0.1c0,0,0.2-0.5,0.2-1.2c0-1.4-0.4-3.7-3.1-3.7c-3.2,0-3.5,5.4-3.5,7.3v0.7
		c0.1,4.4,0.2,7.9,3.1,8c0,0.2-0.1,0.6-0.1,1.1c0,0.4,0,1,0.1,1.5h-11.7c0.1-0.2,0.2-0.9,0.2-1.7c0-0.5,0-1-0.1-1.4
		c2.5,0,3.5-3.2,3.5-6v-2.3c0-2-0.3-6.9-3.3-6.9h-0.2c-3,0.2-3.3,2.8-3.3,4.2c0,0.4,0.1,1,0.1,1c-0.9-0.2-1.8-0.3-2.5-0.3
		c-1.1,0-1.9,0.2-1.9,0.2s0.4-1.6,0.4-3.9c0-1.1-0.1-2.5-0.4-3.8C492.8,391.1,493.6,391.1,494.8,391.1z"/>
	<path class="st1" d="M528.7,391.1c2.9,0,8.5-0.1,13.7-0.1c5.9,0,11.3,0.1,11.3,0.1s-0.4,1.7-0.4,3.9c0,1.1,0.1,2.2,0.3,3.4
		c0,0-1.3-0.2-2.8-0.2c-0.5,0-1,0-1.5,0.1c0,0,0.2-0.5,0.2-1.2c0-1.4-0.4-3.7-3.1-3.7c-3.2,0-3.5,5.4-3.5,7.3v0.7
		c0.1,4.4,0.2,7.9,3.1,8c0,0.2-0.1,0.6-0.1,1.1c0,0.4,0,1,0.1,1.5h-11.7c0.1-0.2,0.2-0.9,0.2-1.7c0-0.5,0-1-0.1-1.4
		c2.5,0,3.5-3.2,3.5-6v-2.3c0-2-0.3-6.9-3.3-6.9h-0.2c-3,0.2-3.3,2.8-3.3,4.2c0,0.4,0.1,1,0.1,1c-0.9-0.2-1.8-0.3-2.5-0.3
		c-1.1,0-1.9,0.2-1.9,0.2s0.4-1.6,0.4-3.9c0-1.1-0.1-2.5-0.4-3.8C526.6,391.1,527.4,391.1,528.7,391.1z"/>
	<path class="st1" d="M581,391.1c-0.2,1.1-0.4,2.6-0.4,4c0,1.3,0.1,2.6,0.3,3.4c0,0-0.9-0.2-2.1-0.2c-0.6,0-1.4,0-2.1,0.2
		c0,0,0-0.2,0-0.6c0-1.2-0.4-4.2-4.1-4.2c-3.8,0-4.1,3.9-4.1,5.4c0,0.4,0,0.6,0,0.6s0.7,0.1,1.9,0.1c0.7,0,1.5-0.1,2.4-0.2l-0.1,1.6
		v1c0,0.5,0,0.7,0.2,1.2c0,0-1.9-0.4-3-0.4c-0.2,0-1.1,0-1.1,0c-0.1,0.4-0.1,0.8-0.1,1.3c0,2.3,1.3,4.9,4.1,4.9c1.9,0,4-1.6,4-3.8
		c0-0.4-0.1-0.9-0.3-1.4c0.6,0.1,1.6,0.2,2.6,0.2c1.1,0,2.1-0.1,2.8-0.2c-0.4,1.3-0.5,2.5-0.5,4c0,1.1,0.1,2.4,0.4,4h-21.2
		c0.1-0.2,0.2-1.3,0.2-2.2c0-0.3,0-0.6-0.1-0.8c0.1,0,0.2,0,0.3,0c1.9,0,2.5-4.9,2.5-6.8V401c0-2.5-0.2-7.2-2.8-7.2
		c-0.1,0-0.3,0-0.4,0c0,0,0.2-0.6,0.2-1.4c0-0.4,0-0.9-0.2-1.3C560.1,391,580.9,391,581,391.1z"/>
	<path class="st1" d="M604.5,391.1c0.2,0.4,2.7,2.9,5.1,3.4c0,0-0.3,1.1-0.3,2.5c0,0.7,0.1,1.4,0.3,2.2c-1.2,0.2-2.5,1.5-2.9,2
		l-0.3,0.3c0.1,0.5,1.8,2.2,3.1,2.8c-0.4,0.6-0.5,1.4-0.5,2.1c0,1.6,0.9,3.1,3.5,3.2c-0.1,0.3-0.1,0.5-0.1,0.8c0,0.4,0.1,1,0.3,1.8
		h-6.7c-0.1-0.3-1.5-1.8-2.3-2.1c0.2-0.2,0.7-1.2,0.7-2.5c0-2-1-4.6-4.6-4.6h-0.2c-1.5,0-3.4,0.1-3.4,0.1v1.5c0,1.8,0.2,4.9,2.6,4.9
		c0.2,0,0.4,0,0.6-0.1c0,0.3,0,0.5,0,0.7c0,0.6,0.1,1.3,0.3,2h-11.7c0.1-0.4,0.1-0.9,0.1-1.4c0-0.4,0-0.9-0.1-1.1c0.1,0,0.2,0,0.3,0
		c2.7,0,2.8-5.4,2.8-7.6v-0.7c-0.1-1.7,0.2-7.5-2.6-7.5c-0.1,0-0.3,0-0.4,0c0,0-0.1-2.7-0.1-2.7H604.5z M595.9,399.9
		c0,0.4,1.3,0.4,2.6,0.4c2.6,0,5.7-0.8,5.7-3.4c0-0.1,0-0.2,0-0.4c-0.3-1.9-2.1-2.9-3.9-2.9c-1,0-2,0.3-2.8,1
		c-1.3,1.2-1.6,2.8-1.7,4.5C595.8,399.7,595.8,399.7,595.9,399.9z"/>
	<path class="st1" d="M629,391.1c0.9,1.2,1.7,1.6,1.7,1.6c0.8-0.4,1.5-1.8,1.5-1.7h4.3c-0.3,1.1-0.3,2.2-0.3,2.9
		c0,1.1,0.2,1.7,0.2,1.7c-0.7-0.2-1.4-0.3-2-0.3c-1.2,0-2.1,0.3-2.1,0.3s-0.2-2-3.6-2c-1.8,0-4.8,0.4-4.8,2.7v0.1
		c0,0.7,0.1,2.4,4.4,2.6c4.6-0.2,4-0.3,5.3-0.4c0.5,0.9,3.2,3.1,4.8,3.7c-0.1,0.4-0.3,1.7-0.3,3.1c0,1,0,2.1,0.5,3.2
		c-2.1,0.6-4,2.8-4.3,3.6h-8.1c-0.1,0-1.2-1.7-1.6-1.7c-0.4,0-1.7,1.7-1.7,1.7h-3.8c0.2-0.5,0.2-1.4,0.2-2.2c0-0.7,0-1.4-0.1-1.9
		c0.5,0.1,1.1,0.1,1.6,0.1c1,0,2-0.1,3-0.2c0.6,1.3,2.4,1.7,4.7,1.7c2.5,0,5.2-0.7,5.4-2.6v-0.2c0-2.1-2.7-3-5.3-3
		c-2.2,0-4.4,0.4-5.3,1.1c-1.2-2.1-3-2.8-3.9-3.2l-0.2-0.1c0,0,0.5-1.6,0.5-3.4c0-1.1-0.2-2.6-0.4-3.1c1.4-0.6,3.8-2.2,4.6-4
		L629,391.1z"/>
</g>
<path class="st0" d="M486,257.5c-5.1,0.4-21.6,8.4-21.6,15.2c0,3.7,1.8,6,4.3,7.1l24.8-13.1C491,262.5,487.2,257.4,486,257.5z"/>
<path class="st0" d="M502.8,242.7c2.2,0,10.5-5,11-12.7c0-6.4-3.6-9.3-7.3-9.3c-4.1,0-8.3,3.5-8.3,10.2
	C498.2,235,499.3,241.4,502.8,242.7z"/>
<path class="st0" d="M495.5,271.5c0-0.1,0-0.1,0-0.2l-15.7,8.3C486.6,278,495.5,275,495.5,271.5z"/>
<polygon class="st0" points="703,156.3 750.5,131.1 673.9,146.6 701,156.8 702.8,155.8 "/>
<polygon class="st2" points="698.4,191.9 698.7,192.3 698.4,191.9 "/>
<polygon points="703.9,158 763.6,126.4 703.9,158 "/>
<polygon points="701.4,162.2 698.4,191.9 698.4,191.9 701.4,162.2 "/>
<path class="st1" d="M264.4,390.9L453,290.9c-1.1-0.5-2.2-0.9-3.1-1.2l-55.7,29.5c1.1,0.6,1.7,1,1.7,1l-0.1,0.7c0,0-1,0.2-2.7,0.5
	c-0.8,0.1-1.9,0.2-3,0.3c-0.2,0-0.4,0-0.5,0l-18.5,9.8c1.1,0.6,1.7,1,1.7,1l-0.1,0.7c0,0-1,0.2-2.7,0.5c-0.8,0.1-1.9,0.2-3,0.3
	c-0.2,0-0.4,0-0.5,0l-20.1,10.7c1.1,0.6,1.7,1,1.7,1l-0.1,0.7c0,0-1,0.2-2.7,0.5c-0.8,0.1-1.9,0.2-3,0.3c-0.2,0-0.4,0-0.5,0
	l-14.1,7.4c1.1,0.6,1.7,1,1.7,1l-0.1,0.7c0,0-1,0.2-2.7,0.5c-0.8,0.1-1.9,0.2-3,0.3c-0.2,0-0.4,0-0.5,0l-18.5,9.8
	c1.1,0.6,1.7,1,1.7,1l-0.1,0.7c0,0-1,0.2-2.7,0.5c-0.8,0.1-1.9,0.2-3,0.3c-0.2,0-0.4,0-0.5,0l-20.1,10.7c1.1,0.6,1.7,1,1.7,1
	l-0.1,0.7c0,0-1,0.2-2.7,0.5c-0.8,0.1-1.9,0.2-3,0.3c-0.2,0-0.4,0-0.5,0l-14.1,7.5l2.3,4.4l15-7.9c0-0.1,0.1-0.1,0.1-0.2
	c0.6-0.9,1.1-1.6,1.6-2.2c1-1.2,1.6-1.9,1.6-1.9l0.7,0.2c0,0,0.1,0.7,0.1,1.8l20.7-10.9c0-0.1,0.1-0.1,0.1-0.2
	c0.6-0.9,1.1-1.6,1.6-2.2c1-1.2,1.6-1.9,1.6-1.9l0.7,0.2c0,0,0.1,0.7,0.1,1.8l19.1-10.1c0-0.1,0.1-0.1,0.1-0.2
	c0.6-0.9,1.1-1.6,1.6-2.2c1-1.2,1.6-1.9,1.6-1.9l0.7,0.2c0,0,0.1,0.7,0.1,1.8l14.6-7.7c0-0.1,0.1-0.1,0.1-0.2
	c0.6-0.9,1.1-1.6,1.6-2.2c1-1.2,1.6-1.9,1.6-1.9l0.7,0.2c0,0,0.1,0.7,0.1,1.8l20.7-10.9c0-0.1,0.1-0.1,0.1-0.2
	c0.6-0.9,1.1-1.6,1.6-2.2c1-1.2,1.6-1.9,1.6-1.9l0.7,0.2c0,0,0.1,0.7,0.1,1.8l19.1-10.1c0-0.1,0.1-0.1,0.1-0.2
	c0.6-0.9,1.1-1.6,1.6-2.2c1-1.2,1.6-1.9,1.6-1.9l0.7,0.2c0,0,0.1,0.7,0.1,1.8l58.8-31.2c-0.9-0.5-1.9-1-2.7-1.4L264.4,390.9z"/>
<g>
	<path class="st1" d="M547.7,289.8c0-1.2,0.1-1.9,0.3-2.7c-0.6,0.1-1.3,0.1-1.9,0.1c-10.7,0-19.1-8.7-25-15.5
		c0,0,17.4-8.3,27.6-11.3c0,0-2.4-3.1-5-6.5c-1.3-1.7-3.1-4.4-3.6-6.1c0,0-9.6,7.8-9.3,7.7c-6.4,4.9-14.5,9.1-14.5,9.1
		c-0.6-0.5-1.6-1.5-2.7-2.9l-18.1,9.6c0,0.1,0,0.1,0,0.2c0,3.5-8.9,6.6-15.7,8.1l-24,12.7c2.5,1.4,5.3,3.4,7.8,6.3h16.6
		c0,0,12.4-13.2,20.7-16.4c1.3,0.5,3.2,2.6,4.1,8.8c4.4,1.2,8.3,4,11,7.6H549C547.9,294,547.7,291.4,547.7,289.8z"/>
	<path class="st1" d="M455.8,292.3l24-12.7c-3,0.7-5.6,1.1-6.8,1.1c-0.2,0-0.4,0-0.5,0c-1.3-0.1-2.6-0.3-3.7-0.8l0,0
		c-2.5-1.1-4.3-3.3-4.3-7.1c0-6.8,16.5-14.8,21.6-15.2c1.2-0.1,5,5,7.4,9.2l0,0c0.5,0.8,0.9,1.5,1.2,2.2c0.5,1,0.8,1.8,0.9,2.4
		l18.1-9.6c-0.5-0.6-1.1-1.3-1.6-2c-0.5-0.6-1.1-1.3-1.6-2h0c-2.9-3.7-5.6-7.6-5.6-9c1.2-3.1,16.6-3.3,16.6-3.3
		c1.3-6.3,6.9-10.9,6.9-10.9c-1-2.3-1.3-4.9-1.3-7c0-2.6,0.4-4.4,0.4-4.4c-9.1-3.1-13.3-8.7-13.3-8.7h-25.2c-7.4,7.2-17.7,9-17.7,9
		s0.3,1.2,0.3,3.1c0,2-0.3,4.9-1.3,7.9c7.7,5.1,11.9,14.3,11.9,14.3c-7.8,2.8-15.7,5-23.7,5c-1.5,0-3.2-0.1-4.7-0.3
		c0,0-0.3,0.9-0.5,1.4c-1.5,3.7-4,9.6-10.5,13.3c2.6,5.4,4,10.6,4,16.5c0,1.4-0.1,2.8-0.3,4.2c0,0,1.4,0.2,3.5,0.9l0,0
		c0.9,0.3,2,0.7,3.1,1.2C453.9,291.3,454.8,291.8,455.8,292.3z M506.5,220.7c3.7,0,7.3,2.9,7.3,9.3c-0.5,7.7-8.8,12.7-11,12.7
		c-3.5-1.3-4.6-7.7-4.6-11.8C498.2,224.1,502.4,220.7,506.5,220.7z"/>
</g>
<polygon points="701.7,159.2 701.7,159.2 701.4,162.2 701.4,162.2 "/>
<polygon points="701.7,159.2 701.7,159.2 703.9,158 703.9,158 701.7,159.2 "/>
<path class="st1" d="M667.3,145.9l0.3,0.4l31.1,11.8l2.3-1.4l-27-10.2l76.6-15.5L703,156.3l-2,0.5l-1.7,1l0,0l-0.4,0.2l-0.7,0.3l0,0
	l-187.8,99.4c0.5,0.7,1.1,1.3,1.6,2h0c0.6,0.7,1.1,1.4,1.6,2l187.8-99.5l0.2-2.5h0l-0.2,2.5l0,0l-3,29.7l0.3,0.4l64.9-65.9
	L667.3,145.9z M703.5,159.4l0.9-0.5l0,0L703.5,159.4z"/>
<path class="st1" d="M324.5,363.7c-0.6,1.1-1.3,2.3-1.9,3.6c-0.6,1.3-1.2,2.7-1.7,4.1c-0.5,1.5-0.9,3-1.2,4.6
	c-0.4,1.6-0.7,3.2-1.2,4.8c-0.9,3.2-1.8,6.4-2.5,9.4c-0.8,3-1.5,5.9-2.1,8.3c-1.2,4.9-1.9,8.1-1.9,8.1l0.7,0.2c0,0,1.5-3,3.6-7.5
	c1.1-2.3,2.3-4.9,3.6-7.8c1.3-2.8,2.6-5.9,3.9-8.9c0.7-1.5,1.4-3,2.1-4.5c0.7-1.5,1.4-2.9,1.9-4.4c0.5-1.5,0.9-2.9,1.2-4.3
	c0.3-1.4,0.6-2.7,0.8-4c0.2-1.2,0.3-2.4,0.4-3.5c0.1-1,0.1-2,0.1-2.7c0-0.2,0-0.4,0-0.6l-4.1,2.2
	C325.7,361.7,325.1,362.7,324.5,363.7z"/>
<path class="st1" d="M329.6,356.7c0,0-0.7,0.6-1.6,1.9c-0.5,0.6-1,1.3-1.6,2.2c0,0.1-0.1,0.1-0.1,0.2l4.1-2.2c0-1.2-0.1-1.8-0.1-1.8
	L329.6,356.7z"/>
<path class="st1" d="M320.1,358c-0.1,0-0.2,0-0.4,0c-1.5,0-3-0.1-4.6-0.2c-1.7-0.1-3.4-0.3-5.1-0.6c-1.8-0.3-3.6-0.8-5.3-1.3
	c-1.4-0.4-3.4-0.9-5.3-1.4l-2.8-0.7c-2.6-0.6-5.3-1.2-7.7-1.9c-3-0.7-5.8-1.5-8.3-2.1l-0.9-0.2c-5.3-1.4-8.9-2.5-9-2.5l-0.9-0.2
	l0.4-2.5l0.9,0.1c0,0,3.8,0.2,9.3,0.7l0.9,0.1c2.6,0.2,5.5,0.5,8.6,0.7c2.6,0.2,5.3,0.5,7.9,0.8l2.9,0.3c2,0.2,4,0.4,5.5,0.5
	c1.8,0.1,3.6,0.3,5.4,0.5c1.6,0.3,3.3,0.6,5,1.1c1.5,0.4,3,0.9,4.4,1.4c1.2,0.4,2.4,0.9,3.7,1.4c1.1,0.4,2,0.9,2.8,1.3l0,0
	c0.2,0.1,0.5,0.2,0.7,0.4l1.7,0.9l-6.5,3.4l-0.2,0C322,358,321,358,320.1,358z M277.4,347c0.9,0.2,1.8,0.5,2.8,0.8l0.9,0.2
	c2.5,0.6,5.3,1.4,8.2,2.1c2.5,0.6,5,1.2,7.7,1.9l2.8,0.7c2,0.5,3.9,1,5.4,1.4c1.7,0.5,3.4,0.9,5.1,1.2c1.6,0.3,3.2,0.5,4.8,0.6
	c1.5,0.1,3,0.2,4.4,0.2c1,0,1.9,0,3-0.1l2.7-1.4c-0.5-0.2-1-0.5-1.6-0.7c-1.2-0.5-2.4-1-3.5-1.4c-1.4-0.5-2.8-0.9-4.2-1.3
	c-1.6-0.5-3.2-0.8-4.8-1.1c-1.7-0.3-3.5-0.4-5.2-0.5c-1.5-0.1-3.5-0.2-5.5-0.5l-2.9-0.3c-2.8-0.3-5.4-0.6-7.9-0.8
	c-3.1-0.3-6-0.5-8.6-0.7l-0.9-0.1C279.2,347.1,278.3,347,277.4,347z"/>
<path class="st1" d="M326.6,356.6c1.7-0.2,2.7-0.5,2.7-0.5l0.1-0.7c0,0-0.6-0.4-1.7-1L323,357c0.2,0,0.4,0,0.5,0
	C324.7,356.9,325.7,356.7,326.6,356.6z"/>
<path class="st1" d="M301.4,375.9c-0.6,1.1-1.3,2.3-1.9,3.6c-0.6,1.3-1.2,2.7-1.7,4.1c-0.5,1.5-0.9,3-1.2,4.6
	c-0.4,1.6-0.7,3.2-1.2,4.8c-0.9,3.2-1.8,6.4-2.5,9.4c-0.8,3-1.5,5.9-2.1,8.3c-1.2,4.9-1.9,8.1-1.9,8.1l0.7,0.2c0,0,1.5-3,3.6-7.5
	c1.1-2.3,2.3-4.9,3.6-7.8c1.3-2.8,2.6-5.9,3.9-8.9c0.7-1.5,1.4-3,2.1-4.5c0.7-1.5,1.4-2.9,1.9-4.4c0.5-1.5,0.9-2.9,1.2-4.3
	c0.3-1.4,0.6-2.7,0.8-4c0.2-1.2,0.3-2.4,0.4-3.5c0.1-1,0.1-2,0.1-2.7c0-0.2,0-0.4,0-0.6l-4.1,2.2C302.5,374,301.9,374.9,301.4,375.9
	z"/>
<path class="st1" d="M306.4,368.9c0,0-0.7,0.6-1.6,1.9c-0.5,0.6-1,1.3-1.6,2.2c0,0.1-0.1,0.1-0.1,0.2l4.1-2.2c0-1.2-0.1-1.8-0.1-1.8
	L306.4,368.9z"/>
<path class="st1" d="M296.9,370.3c-0.1,0-0.2,0-0.4,0c-1.5,0-3-0.1-4.6-0.2c-1.7-0.1-3.4-0.3-5.1-0.6c-1.8-0.3-3.6-0.8-5.3-1.3
	c-1.4-0.4-3.4-0.9-5.3-1.4l-2.7-0.7c-2.6-0.6-5.3-1.3-7.8-1.9c-3-0.7-5.8-1.5-8.3-2.1l-0.9-0.2c-5.3-1.4-8.9-2.5-9-2.5l-0.9-0.2
	l0.4-2.5l0.9,0.1c0,0,3.8,0.2,9.3,0.7l1,0.1c2.5,0.2,5.4,0.4,8.5,0.7c2.6,0.2,5.3,0.5,8,0.8l2.9,0.3c2,0.2,4,0.4,5.5,0.5
	c2,0.1,3.7,0.3,5.4,0.5c1.6,0.3,3.3,0.6,5,1.1c1.5,0.4,3,0.9,4.4,1.4c1.2,0.4,2.4,0.9,3.7,1.4c1.1,0.5,2.1,0.9,2.8,1.3l0,0
	c0.2,0.1,0.5,0.2,0.7,0.4l1.7,0.9l-6.5,3.4l-0.2,0C298.8,370.3,297.8,370.3,296.9,370.3z M254.2,359.2c0.9,0.2,1.8,0.5,2.8,0.8
	l0.9,0.2c2.5,0.6,5.3,1.4,8.3,2.1c2.5,0.7,5.1,1.3,7.8,1.9l2.8,0.7c2,0.5,3.9,1,5.4,1.4c1.7,0.5,3.4,0.9,5.1,1.2
	c1.6,0.3,3.2,0.5,4.8,0.6c1.5,0.1,3,0.2,4.4,0.2c1,0,1.9,0,3-0.1l2.7-1.4c-0.5-0.2-1-0.5-1.6-0.7c-1.2-0.5-2.4-1-3.5-1.4
	c-1.4-0.5-2.8-0.9-4.2-1.3c-1.6-0.5-3.2-0.8-4.8-1.1c-1.6-0.3-3.2-0.4-5.2-0.5c-1.5-0.1-3.5-0.2-5.5-0.5l-2.9-0.3
	c-2.8-0.3-5.4-0.6-7.9-0.8c-3.1-0.3-5.9-0.5-8.5-0.7l-1-0.1C256.1,359.4,255.1,359.3,254.2,359.2z"/>
<path class="st1" d="M303.4,368.9c1.7-0.2,2.7-0.5,2.7-0.5l0.1-0.7c0,0-0.6-0.4-1.7-1l-4.6,2.4c0.2,0,0.4,0,0.5,0
	C301.5,369.1,302.6,369,303.4,368.9z"/>
<path class="st1" d="M276.6,389.1c-0.6,1.1-1.3,2.3-1.9,3.6c-0.6,1.3-1.2,2.7-1.7,4.1c-0.5,1.5-0.9,3-1.2,4.6
	c-0.4,1.6-0.7,3.2-1.2,4.8c-0.9,3.2-1.8,6.4-2.5,9.4c-0.8,3-1.5,5.9-2.1,8.3c-1.2,4.9-1.9,8.1-1.9,8.1l0.7,0.2c0,0,1.5-3,3.6-7.5
	c1.1-2.3,2.3-4.9,3.6-7.8c1.3-2.8,2.6-5.9,3.9-8.9c0.7-1.5,1.4-3,2.1-4.5c0.7-1.5,1.4-2.9,1.9-4.4c0.5-1.5,0.9-2.9,1.2-4.3
	c0.3-1.4,0.6-2.7,0.8-4c0.2-1.2,0.3-2.4,0.4-3.5c0.1-1,0.1-2,0.1-2.7c0-0.2,0-0.4,0-0.6l-4.1,2.2C277.8,387.1,277.2,388,276.6,389.1
	z"/>
<path class="st1" d="M281.7,382.1c0,0-0.7,0.6-1.6,1.9c-0.5,0.6-1,1.3-1.6,2.2c0,0.1-0.1,0.1-0.1,0.2l4.1-2.2c0-1.2-0.1-1.8-0.1-1.8
	L281.7,382.1z"/>
<path class="st1" d="M272.1,383.4c-0.1,0-0.2,0-0.4,0c-1.5,0-3-0.1-4.6-0.2c-1.7-0.1-3.4-0.3-5.1-0.6c-1.8-0.3-3.6-0.8-5.3-1.3
	c-1.5-0.4-3.4-0.9-5.3-1.4l-2.8-0.7c-2.6-0.6-5.3-1.2-7.8-1.9c-3-0.8-5.9-1.5-8.4-2.2l-0.8-0.2c-5.3-1.4-8.9-2.5-9-2.5l-0.9-0.2
	l0.4-2.5l0.9,0.1c0,0,3.8,0.2,9.3,0.7l0.9,0.1c2.6,0.2,5.5,0.5,8.6,0.7c2.6,0.2,5.3,0.5,8,0.8l2.9,0.3c2,0.2,4,0.3,5.5,0.5
	c1.8,0.1,3.6,0.3,5.4,0.5c1.6,0.3,3.3,0.6,5,1.1c1.5,0.4,3,0.9,4.4,1.4c1.2,0.4,2.4,0.9,3.7,1.4c1.1,0.4,2,0.9,2.8,1.3l0,0
	c0.2,0.1,0.5,0.2,0.7,0.4l1.7,0.9l-6.5,3.4l-0.2,0C274,383.4,273.1,383.4,272.1,383.4z M229.5,372.3c0.9,0.2,1.8,0.5,2.8,0.8
	l0.8,0.2c2.5,0.7,5.3,1.4,8.4,2.2c2.5,0.6,5,1.2,7.7,1.9l2.8,0.7c2,0.5,3.9,1,5.4,1.4c1.7,0.5,3.4,0.9,5.1,1.2
	c1.6,0.3,3.2,0.5,4.8,0.6c1.5,0.1,3,0.2,4.4,0.2c1,0,1.9,0,3-0.1l2.7-1.4c-0.5-0.2-1-0.5-1.6-0.7c-1.2-0.5-2.4-1-3.5-1.4
	c-1.4-0.5-2.8-0.9-4.2-1.3c-1.6-0.5-3.2-0.8-4.8-1.1c-1.7-0.3-3.5-0.4-5.2-0.5c-1.5-0.1-3.6-0.3-5.5-0.5l-2.9-0.3
	c-2.8-0.3-5.4-0.6-7.9-0.8c-3.1-0.3-6-0.5-8.6-0.7l-0.9-0.1C231.3,372.5,230.4,372.4,229.5,372.3z"/>
<path class="st1" d="M278.6,382c1.7-0.2,2.7-0.5,2.7-0.5l0.1-0.7c0,0-0.6-0.4-1.7-1l-4.6,2.4c0.2,0,0.4,0,0.5,0
	C276.8,382.3,277.8,382.1,278.6,382z"/>
<path class="st1" d="M396.2,321.4c0,0-0.7,0.6-1.6,1.9c-0.5,0.6-1,1.3-1.6,2.2c0,0.1-0.1,0.1-0.1,0.2l4.1-2.2c0-1.2-0.1-1.8-0.1-1.8
	L396.2,321.4z"/>
<path class="st1" d="M393.2,321.4c1.7-0.2,2.7-0.5,2.7-0.5l0.1-0.7c0,0-0.6-0.4-1.7-1l-4.6,2.4c0.2,0,0.4,0,0.5,0
	C391.3,321.6,392.3,321.5,393.2,321.4z"/>
<path class="st1" d="M368,340.7c-0.6,1.1-1.3,2.3-1.9,3.6c-0.6,1.3-1.2,2.7-1.7,4.1c-0.5,1.5-0.9,3-1.2,4.6
	c-0.4,1.6-0.7,3.2-1.2,4.8c-0.9,3.2-1.8,6.4-2.5,9.4c-0.8,3-1.5,5.9-2.1,8.3c-1.2,4.9-1.9,8.1-1.9,8.1l0.7,0.2c0,0,1.5-3,3.6-7.5
	c1.1-2.3,2.3-4.9,3.6-7.8c1.3-2.8,2.6-5.9,3.9-8.9c0.7-1.5,1.4-3,2.1-4.5c0.7-1.5,1.4-2.9,1.9-4.4c0.5-1.5,0.9-2.9,1.2-4.3
	c0.3-1.4,0.6-2.7,0.8-4c0.2-1.2,0.3-2.4,0.4-3.5c0.1-1,0.1-2,0.1-2.7c0-0.2,0-0.4,0-0.6l-4.1,2.2C369.1,338.7,368.6,339.6,368,340.7
	z"/>
<path class="st1" d="M373,333.7c0,0-0.7,0.6-1.6,1.9c-0.5,0.6-1,1.3-1.6,2.2c0,0.1-0.1,0.1-0.1,0.2l4.1-2.2c0-1.2-0.1-1.8-0.1-1.8
	L373,333.7z"/>
<path class="st1" d="M363.5,335c-0.1,0-0.2,0-0.4,0c-1.5,0-3-0.1-4.6-0.2c-1.7-0.1-3.4-0.3-5.1-0.6c-1.8-0.3-3.6-0.8-5.3-1.3
	c-1.4-0.4-3.4-0.9-5.3-1.4l-2.8-0.7c-2.6-0.6-5.3-1.2-7.7-1.9c-3-0.7-5.8-1.5-8.3-2.1l-0.9-0.2c-5.3-1.4-8.9-2.5-9-2.5l-0.9-0.2
	l0.4-2.5l0.9,0.1c0,0,3.8,0.2,9.3,0.7l0.9,0.1c2.6,0.2,5.5,0.5,8.6,0.7c2.6,0.2,5.3,0.5,8,0.8l2.8,0.3c2,0.2,4,0.4,5.5,0.5
	c1.8,0.1,3.6,0.3,5.4,0.5c1.6,0.3,3.3,0.6,5,1.1c1.5,0.4,3,0.9,4.4,1.4c1.2,0.4,2.4,0.9,3.7,1.4c1.1,0.4,2,0.9,2.8,1.3l0,0
	c0.2,0.1,0.5,0.2,0.7,0.4l1.7,0.9l-6.5,3.4l-0.2,0C365.4,335,364.4,335,363.5,335z M320.8,323.9c0.9,0.2,1.8,0.5,2.8,0.8l0.9,0.2
	c2.5,0.6,5.3,1.4,8.2,2.1c2.5,0.6,5,1.2,7.7,1.9l2.8,0.7c2,0.5,3.9,1,5.4,1.4c1.7,0.5,3.4,0.9,5.1,1.2c1.6,0.3,3.2,0.5,4.8,0.6
	c1.5,0.1,3,0.2,4.4,0.2c1,0,1.9,0,3-0.1l2.7-1.4c-0.5-0.2-1-0.5-1.6-0.7c-1.2-0.5-2.4-1-3.5-1.4c-1.4-0.5-2.8-0.9-4.2-1.3
	c-1.6-0.5-3.2-0.8-4.8-1.1c-1.7-0.3-3.5-0.4-5.2-0.5c-1.5-0.1-3.5-0.2-5.5-0.5l-2.8-0.3c-2.8-0.3-5.4-0.6-8-0.8
	c-3.1-0.3-6-0.5-8.6-0.7l-0.9-0.1C322.7,324.1,321.7,324,320.8,323.9z"/>
<path class="st1" d="M370,333.6c1.7-0.2,2.7-0.5,2.7-0.5l0.1-0.7c0,0-0.6-0.4-1.7-1l-4.6,2.4c0.2,0,0.4,0,0.5,0
	C368.1,333.9,369.2,333.7,370,333.6z"/>
<path class="st1" d="M343.2,353.8c-0.6,1.1-1.3,2.3-1.9,3.6c-0.6,1.3-1.2,2.7-1.7,4.1c-0.5,1.5-0.9,3-1.2,4.6
	c-0.4,1.6-0.7,3.2-1.2,4.8c-0.9,3.2-1.8,6.4-2.5,9.4c-0.8,3-1.5,5.9-2.1,8.3c-1.2,4.9-1.9,8.1-1.9,8.1l0.7,0.2c0,0,1.5-3,3.6-7.5
	c1.1-2.3,2.3-4.9,3.6-7.8c1.3-2.8,2.6-5.9,3.9-8.9c0.7-1.5,1.4-3,2.1-4.5c0.7-1.5,1.4-2.9,1.9-4.4c0.5-1.5,0.9-2.9,1.2-4.3
	c0.3-1.4,0.6-2.7,0.8-4c0.2-1.2,0.3-2.4,0.4-3.5c0.1-1,0.1-2,0.1-2.7c0-0.2,0-0.4,0-0.6l-4.1,2.2
	C344.4,351.8,343.8,352.8,343.2,353.8z"/>
<path class="st1" d="M348.3,346.8c0,0-0.7,0.6-1.6,1.9c-0.5,0.6-1,1.3-1.6,2.2c0,0.1-0.1,0.1-0.1,0.2l4.1-2.2c0-1.2-0.1-1.8-0.1-1.8
	L348.3,346.8z"/>
<path class="st1" d="M338.7,348.2c-0.1,0-0.2,0-0.3,0c-1.5,0-3-0.1-4.6-0.2c-1.7-0.1-3.4-0.3-5.1-0.6c-1.8-0.3-3.6-0.8-5.3-1.3
	c-1.4-0.4-3.4-0.9-5.3-1.4l-2.7-0.7c-2.6-0.6-5.3-1.3-7.8-1.9c-3.1-0.8-6-1.5-8.5-2.2l-0.7-0.2c-5.3-1.4-8.9-2.5-9-2.5l-0.9-0.2
	l0.4-2.5l0.9,0.1c0,0,3.8,0.2,9.3,0.7l1,0.1c2.5,0.2,5.4,0.4,8.5,0.7c2.6,0.2,5.3,0.5,7.9,0.8l2.9,0.3c2,0.2,4,0.4,5.5,0.5
	c1.8,0.1,3.6,0.3,5.4,0.5c1.6,0.3,3.3,0.6,5,1.1c1.5,0.4,3,0.9,4.4,1.4c1.2,0.4,2.4,0.9,3.7,1.4c1,0.4,1.9,0.9,2.8,1.3l0,0
	c0.2,0.1,0.5,0.2,0.7,0.4l1.7,0.9l-6.5,3.4l-0.2,0C340.6,348.1,339.7,348.2,338.7,348.2z M296.1,337.1c0.9,0.2,1.8,0.5,2.8,0.8
	l0.7,0.2c2.5,0.7,5.4,1.4,8.5,2.2c2.5,0.7,5.1,1.3,7.8,1.9l2.7,0.7c2,0.5,3.9,1,5.4,1.4c1.7,0.5,3.4,0.9,5.1,1.2
	c1.6,0.3,3.2,0.5,4.8,0.6c1.5,0.1,3,0.2,4.4,0.2c1,0,1.9,0,3-0.1l2.7-1.4c-0.5-0.2-1-0.5-1.6-0.7c-1.2-0.5-2.4-1-3.5-1.4
	c-1.4-0.5-2.8-0.9-4.2-1.3c-1.6-0.5-3.2-0.8-4.8-1.1c-1.7-0.3-3.5-0.4-5.2-0.5c-1.5-0.1-3.5-0.2-5.5-0.5l-2.9-0.3
	c-2.8-0.3-5.4-0.6-7.9-0.8c-3.1-0.3-5.9-0.5-8.5-0.7l-1-0.1C297.9,337.2,297,337.1,296.1,337.1z"/>
<path class="st1" d="M345.2,346.7c1.7-0.2,2.7-0.5,2.7-0.5l0.1-0.7c0,0-0.6-0.4-1.7-1l-4.6,2.4c0.2,0,0.4,0,0.5,0
	C343.4,347,344.4,346.9,345.2,346.7z"/>
<path class="st3" d="M708.7,138.9"/>
</svg>
