<?xml version="1.0" encoding="utf-8"?>
<!-- Generator: Adobe Illustrator 19.2.1, SVG Export Plug-In . SVG Version: 6.00 Build 0)  -->
<svg version="1.1" id="Layer_1" xmlns="http://www.w3.org/2000/svg" xmlns:xlink="http://www.w3.org/1999/xlink" x="0px" y="0px"
	 viewBox="0 0 541.7 309.6" style="enable-background:new 0 0 541.7 309.6;" xml:space="preserve">
<style type="text/css">
	.st0{fill:none;}
	.st1{fill:#FFFFFF;}
	.st2{fill:#231F20;}
	.st3{fill:none;stroke:#231F20;stroke-width:3;stroke-miterlimit:10;}
	.st4{fill:#040404;}
	.st5{fill:none;stroke:#000000;stroke-width:2;stroke-miterlimit:10;}
</style>
<path class="st0" d="M287.4,149.5c-2.5-2.9-4.6-4.9-8.1-3.1s-8.1,5.8-8.4,7s-2.9,7.4,3.5,9.9l0.8,1.3c0,0-8.2,0-6.9-10.4
	c0,0-3.1,0.5-3.6,2.6s0.3,8.8,6.9,9.1c2.3,0.1,3.7,0.2,4.6,0.3c5.4-3.9,11.3-8.3,11.3-8.3S289.9,152.4,287.4,149.5z"/>
<path class="st0" d="M354.6,155.6c0.1,0,0.2,0,0.3,0.1C354.8,155.7,354.7,155.6,354.6,155.6L354.6,155.6z"/>
<path class="st0" d="M357.7,156.5c7.1,3.2,13.6,13.3,15,15.6l0.1,0.1C372,170.9,365.2,159.9,357.7,156.5z"/>
<path class="st0" d="M411.9,186.9c-0.8,0.2-1.8,0.5-2.9,0.7l8.2,7.4L411.9,186.9z"/>
<path class="st0" d="M356.8,156.2c-0.2-0.1-0.4-0.1-0.6-0.2C356.3,156,356.5,156.1,356.8,156.2z"/>
<path class="st0" d="M530.6,243.2c-9.3-3.5-110.1-53.6-116.7-56.9l13.3,20.4L406.5,188c-3.2,0.5-7.7,0.6-11.3-3
	c-5.6-5.6-8.3-10.3-8.7-11c-8-6.1-29.1-21.7-31.7-22.2l-0.2,0l-5-7.4l-10-4.6c-2.9-1.3-5.1-4-5.7-7.1l-9-3.7l-0.7-2.7l-13.8-4.8
	l-2,1.7l-25-10.3l0.3-2.7l-13.3-6.3l-2,3l-0.4-0.2L20,2.3l-4.1,6.5l134.1,60l-0.4,0.5c0,0-3.1,3.7-2.4,7.5c0.4,2,1.8,3.8,4.2,5.1
	l6.3,3.3L314.6,159l0.1,0.2c0,0,1.4,3.8,7.6,5.3l0.6,0.2l-1.5,2.7c1.7,1,7.9,5.1,8.6,11.1l0,0.1l0,0.1c-0.1,0.3-1.9,7.8,4.5,11.8
	l0.1,0.1c0.1,0.1,2.5,3.4,2.4,5.7c0.2,0.5,1.2,2.8,3.9,2.6c3.8-0.3,15,9.9,15.5,13.3c0.4,3,0.7,8,0.8,9.1c0.1,0.1,0.4,0.3,0.7,0.2
	c0.4-0.1,1.3-0.5,2.5-3.5c1.9-4.7,2.5-7.6,2.7-8.4c-3.1-3.5-6.7-7.2-7.5-7.3c-0.2,0-0.7-0.1-5.8-3.7c-1.1,0-1.8-0.2-1.9-0.2
	l-0.1-0.1l-3-1.9l0-0.4c0.1-0.2,0.2-0.4,0.6-0.5l-0.1-0.1h0c-5.1-3.7-10.3-7.5-10.3-7.6l-0.1-0.1l-0.1-0.1c-0.1-0.2-2.5-5.9,0.1-9
	c2.6-3,4.9-5.1,8.7-3.2c3.4,1.7,8.2,5.8,8.7,7.3l0.1,0.2c2.1,6.3-0.8,9.1-3.7,10.2l-0.2,0.3c1-0.2,2.6-0.7,3.9-2.1
	c1.5-1.7,2.1-4.3,1.7-7.6l-0.1-0.7l0.7,0.1c0.1,0,3.4,0.6,4,2.9c0.4,1.5,0.1,4.6-1.6,6.9c-1.3,1.8-3.3,2.7-5.8,2.8
	c-1.3,0-2.4,0.1-3.2,0.2c0.7,0.5,1.5,1,2.2,1.5c1.9-0.1,5.6-1.1,9.3-6.1l0.2-0.1c0.2-0.1,4.3-2.4,9.2,0c5,2.5,12.7,12.1,15.1,18.6
	c2.2,6.2,2.4,14.7,2.5,16.3c1.1,0.8,6.5,4.3,11.8,4.8c5,0.4,10.4-2.5,11.9-3.4l-0.3-0.4l6.5-4.3c-1.8-3.9-12-25.3-32.6-44.8l3.6,7
	l-5-0.7l0.3-2l1.2,0.2l-6.8-13.2l4,3.5c26.1,22.8,37.5,49.8,37.6,50l0.3,0.8l-6,4l94.6,81.9l29.7-57.8c0-0.1,0.8-1.6,0.1-3.5
	C536.3,246.2,534.1,244.5,530.6,243.2z M343.1,173.5l-1.8-0.8l9-19.2l-27.7-14.8l-7.3,16.1l-1-0.5c-0.2-0.1-4.6-2.6-6.6,0.6
	l-0.3,0.4l-1.7-1.1l0.3-0.4c2-3.3,6-2.9,8.7-1.5l-0.4,0.9c0.2,0.1,0.3,0.2,0.5,0.2l0,0l7.3-16.1l29.5,15.8l-29.7-15.9l-0.3-0.1
	l-0.4,0.9L153,65.9l0.8-1.8L321.6,136l0,0l0.5,0.2l30.8,16.4L343.1,173.5z M368.3,185.4l-1.8-0.8l5.2-12.2
	c-1.5-2.4-9.9-15.3-17.7-15.8l-0.5,0l0.1-2l0.5,0c9.7,0.7,19.1,16.6,19.5,17.2l0.3,0.4L368.3,185.4z"/>
<path class="st0" d="M355.9,155.9c-0.2,0-0.4-0.1-0.5-0.1C355.5,155.8,355.7,155.8,355.9,155.9z"/>
<path class="st0" d="M356.1,192.4c1.6-2.2,1.7-5,1.4-6c-0.3-1.2-1.7-1.8-2.5-2c0.3,3.3-0.4,5.9-2,7.7c-2.2,2.5-5.4,2.5-5.5,2.5h-0.9
	l1.3-2.2l0.2-0.1c5.6-2.2,3.9-7.4,3.3-9.1l-0.1-0.3c-0.3-0.9-4.6-4.8-8.2-6.7c-3.1-1.6-4.9,0-7.5,2.9c-2.1,2.4-0.4,7,0,7.9
	c0.8,0.6,6.1,4.5,11,8.1c1-0.1,2.5-0.2,4.4-0.3C353.3,194.7,355,193.9,356.1,192.4z"/>
<path class="st0" d="M346.3,196.2l1,0.6C347,196.6,346.7,196.4,346.3,196.2C346.4,196.2,346.4,196.2,346.3,196.2z"/>
<path class="st0" d="M416.3,220.8c-3.1-6.5-12.6-24.2-29.8-41.2C403.7,196.6,413.2,214.4,416.3,220.8z"/>
<polygon class="st0" points="415.6,194.9 422.2,200.8 412.9,186.6 412.9,186.6 422.2,200.8 "/>
<polygon class="st0" points="385.4,183.9 385.4,183.9 380.1,173.7 380.1,173.7 "/>
<path class="st0" d="M357.6,156.5c-0.2-0.1-0.5-0.2-0.7-0.3C357.1,156.3,357.4,156.4,357.6,156.5z"/>
<path class="st1" d="M357.7,156.5C357.6,156.5,357.6,156.5,357.7,156.5C357.6,156.5,357.6,156.5,357.7,156.5z"/>
<path class="st1" d="M355.3,155.7c-0.2,0-0.3-0.1-0.5-0.1C355,155.7,355.2,155.7,355.3,155.7z"/>
<path class="st0" d="M530.6,243.2c-9.3-3.5-110.1-53.6-116.7-56.9l13.3,20.4L406.5,188c-3.2,0.5-7.7,0.6-11.3-3
	c-5.6-5.6-8.3-10.3-8.7-11c-8-6.1-29.1-21.7-31.7-22.2l-0.2,0l-5-7.4l-10-4.6c-2.9-1.3-5.1-4-5.7-7.1l-9-3.7l-0.7-2.7l-13.8-4.8
	l-2,1.7l-25-10.3l0.3-2.7l-13.3-6.3l-2,3l-0.4-0.2L20,2.3l-4.1,6.5l134.1,60l-0.4,0.5c0,0-3.1,3.7-2.4,7.5c0.4,2,1.8,3.8,4.2,5.1
	l6.3,3.3L314.6,159l0.1,0.2c0,0,1.4,3.8,7.6,5.3l0.6,0.2l-1.5,2.7c1.7,1,7.9,5.1,8.6,11.1l0,0.1l0,0.1c-0.1,0.3-1.9,7.8,4.5,11.8
	l0.1,0.1c0.1,0.1,2.5,3.4,2.4,5.7c0.2,0.5,1.2,2.8,3.9,2.6c3.8-0.3,15,9.9,15.5,13.3c0.4,3,0.7,8,0.8,9.1c0.1,0.1,0.4,0.3,0.7,0.2
	c0.4-0.1,1.3-0.5,2.5-3.5c1.9-4.7,2.5-7.6,2.7-8.4c-3.1-3.5-6.7-7.2-7.5-7.3c-0.2,0-0.7-0.1-5.8-3.7c-1.1,0-1.8-0.2-1.9-0.2
	l-0.1-0.1l-3-1.9l0-0.4c0.1-0.2,0.2-0.4,0.6-0.5l-0.1-0.1h0c-5.1-3.7-10.3-7.5-10.3-7.6l-0.1-0.1l-0.1-0.1c-0.1-0.2-2.5-5.9,0.1-9
	c2.6-3,4.9-5.1,8.7-3.2c3.4,1.7,8.2,5.8,8.7,7.3l0.1,0.2c2.1,6.3-0.8,9.1-3.7,10.2l-0.2,0.3c1-0.2,2.6-0.7,3.9-2.1
	c1.5-1.7,2.1-4.3,1.7-7.6l-0.1-0.7l0.7,0.1c0.1,0,3.4,0.6,4,2.9c0.4,1.5,0.1,4.6-1.6,6.9c-1.3,1.8-3.3,2.7-5.8,2.8
	c-1.3,0-2.4,0.1-3.2,0.2c0.7,0.5,1.5,1,2.2,1.5c1.9-0.1,5.6-1.1,9.3-6.1l0.2-0.1c0.2-0.1,4.3-2.4,9.2,0c5,2.5,12.7,12.1,15.1,18.6
	c2.2,6.2,2.4,14.7,2.5,16.3c1.1,0.8,6.5,4.3,11.8,4.8c5,0.4,10.4-2.5,11.9-3.4l-0.3-0.4l6.5-4.3c-1.8-3.9-12-25.3-32.6-44.8l3.6,7
	l-5-0.7l0.3-2l1.2,0.2l-6.8-13.2l4,3.5c26.1,22.8,37.5,49.8,37.6,50l0.3,0.8l-6,4l94.6,81.9l29.7-57.8c0-0.1,0.8-1.6,0.1-3.5
	C536.3,246.2,534.1,244.5,530.6,243.2z M343.1,173.5l-1.8-0.8l9-19.2l-27.7-14.8l-7.3,16.1l-1-0.5c-0.2-0.1-4.6-2.6-6.6,0.6
	l-0.3,0.4l-1.7-1.1l0.3-0.4c2-3.3,6-2.9,8.7-1.5l-0.4,0.9c0.2,0.1,0.3,0.2,0.5,0.2l0,0l7.3-16.1l29.5,15.8l-29.7-15.9l-0.3-0.1
	l-0.4,0.9L153,65.9l0.8-1.8L321.6,136l0,0l0.5,0.2l30.8,16.4L343.1,173.5z M368.3,185.4l-1.8-0.8l5.2-12.2
	c-1.5-2.4-9.9-15.3-17.7-15.8l-0.5,0l0.1-2l0.5,0c9.7,0.7,19.1,16.6,19.5,17.2l0.3,0.4L368.3,185.4z"/>
<path class="st0" d="M357.7,156.5c7.1,3.2,13.6,13.3,15,15.6l0.1,0.1C372,170.9,365.2,159.9,357.7,156.5z"/>
<path class="st0" d="M411.9,186.9c-0.8,0.2-1.8,0.5-2.9,0.7l8.2,7.4L411.9,186.9z"/>
<polygon class="st0" points="415.6,194.9 422.2,200.8 412.9,186.6 412.9,186.6 422.2,200.8 "/>
<path class="st0" d="M354.6,155.6c0.1,0,0.2,0,0.3,0.1C354.8,155.7,354.7,155.6,354.6,155.6L354.6,155.6z"/>
<path class="st0" d="M356.1,192.4c1.6-2.2,1.7-5,1.4-6c-0.3-1.2-1.7-1.8-2.5-2c0.3,3.3-0.4,5.9-2,7.7c-2.2,2.5-5.4,2.5-5.5,2.5h-0.9
	l1.3-2.2l0.2-0.1c5.6-2.2,3.9-7.4,3.3-9.1l-0.1-0.3c-0.3-0.9-4.6-4.8-8.2-6.7c-3.1-1.6-4.9,0-7.5,2.9c-2.1,2.4-0.4,7,0,7.9
	c0.8,0.6,6.1,4.5,11,8.1c1-0.1,2.5-0.2,4.4-0.3C353.3,194.7,355,193.9,356.1,192.4z"/>
<path class="st0" d="M346.3,196.2l1,0.6C347,196.6,346.7,196.4,346.3,196.2C346.4,196.2,346.4,196.2,346.3,196.2z"/>
<path class="st0" d="M416.3,220.8c-3.1-6.5-12.6-24.2-29.8-41.2C403.7,196.6,413.2,214.4,416.3,220.8z"/>
<polygon class="st0" points="385.4,183.9 385.4,183.9 380.1,173.7 380.1,173.7 "/>
<path class="st0" d="M354.6,155.6c0.1,0,0.2,0,0.3,0.1C354.8,155.7,354.7,155.6,354.6,155.6L354.6,155.6z"/>
<path class="st0" d="M314.5,152.7L314.5,152.7L314.5,152.7l-0.2,0.5c0.2,0.1,0.3,0.2,0.5,0.2l0,0l7.3-16.1l29.5,15.8l-29.7-15.9
	l-0.3-0.1l-0.2,0.5l0,0l0,0l-0.2,0.5l0,0l-6.5,14.2c0,0,0,0,0,0L314.5,152.7z"/>
<path class="st0" d="M357.7,156.5c7.1,3.2,13.6,13.3,15,15.6l0.1,0.1C372,170.9,365.2,159.9,357.7,156.5z"/>
<path class="st0" d="M346.3,196.2l1,0.6C347,196.6,346.7,196.4,346.3,196.2C346.4,196.2,346.4,196.2,346.3,196.2z"/>
<path class="st0" d="M356.1,192.4c1.6-2.2,1.7-5,1.4-6c-0.3-1.2-1.7-1.8-2.5-2c0.3,3.3-0.4,5.9-2,7.7c-2.2,2.5-5.4,2.5-5.5,2.5h-0.9
	l1.3-2.2l0.2-0.1c5.6-2.2,3.9-7.4,3.3-9.1l-0.1-0.3c-0.3-0.9-4.6-4.8-8.2-6.7c-3.1-1.6-4.9,0-7.5,2.9c-2.1,2.4-0.4,7,0,7.9
	c0.8,0.6,6.1,4.5,11,8.1c1-0.1,2.5-0.2,4.4-0.3C353.3,194.7,355,193.9,356.1,192.4z"/>
<polygon class="st0" points="385.4,183.9 385.4,183.9 380.1,173.7 380.1,173.7 "/>
<path class="st0" d="M416.3,220.8c-3.1-6.5-12.6-24.2-29.8-41.2C403.7,196.6,413.2,214.4,416.3,220.8z"/>
<polygon class="st0" points="412.9,186.6 422.2,200.8 415.6,194.9 422.2,200.8 412.9,186.6 "/>
<polygon points="314.5,152.7 314.5,152.7 314.5,152.7 "/>
<path d="M409,187.6l8.2,7.4l-5.3-8.1C411.1,187.1,410.1,187.4,409,187.6z"/>
<polygon points="321.4,137.5 321.4,137.5 321.4,137.5 "/>
<polygon class="st1" points="321.4,137.5 321.2,138 321.2,138 "/>
<polygon class="st1" points="314.7,152.2 314.7,152.2 314.5,152.7 "/>
<path class="st1" d="M356.1,155.9c-0.1,0-0.2,0-0.2-0.1C356,155.9,356,155.9,356.1,155.9z"/>
<path class="st1" d="M356.9,156.2c0,0-0.1,0-0.1,0C356.8,156.2,356.9,156.2,356.9,156.2z"/>
<path class="st2" d="M132.6,87.5C137,95.2,152,101,152,101c-0.6,2.8-0.9,6.5-0.9,9.3c0,4.7,0.5,8.4,0.5,8.4
	c-7.3,2.4-12.4,10.4-12.4,10.4c0,1.5,13.6,9.9,13.6,9.9s-2,4.7-2,12.4c0,2.3,0.4,5,1.3,7.6c-8.8,3.6-13.8,8.6-17.1,13.2H64.3
	c0.4-2.2,0.6-4.2,0.6-6.5c0-1.7-0.1-3.6-0.3-5.4c0.4,0.4,1,0.5,1.8,0.5c1,0,2.2-0.3,2.7-0.6c5.5-3.8,8.2-16.5,8.2-30.3v-3.2
	c0-6.7-1.2-28-11.9-28h-0.5c0,0-0.4-10.7-0.5-10.7C64.3,87.9,132.6,87.5,132.6,87.5z M101,125.2h9.3c10,0,20.2-2.6,20.2-13.8
	c0-9.1-8.3-13.7-16.4-13.7c-2.3,0-4.9,0.4-7.2,1.4c-8.1,3.3-9.1,14.5-9.9,22c0,0.5-0.1,1.9-0.1,2.7C97.2,125.1,99,125.2,101,125.2z
	 M130.3,147.6c0-6.7-7.3-12.9-16.3-12.9c-2.9,0-9.3-0.1-12-0.1c-3.3,0-4.6,0.4-4.6,2.8c0,11.9,3.2,23.3,16,23.3
	C122.9,160.5,130.3,154.7,130.3,147.6z"/>
<path class="st0" d="M314.9,151.8c0.4,0.3,0.9,0.5,1.3,0.8l4.6-10.1c-0.7,0.3-1.3,0.5-2,0.8L314.9,151.8z"/>
<path class="st0" d="M153,65.9l90.1,38.6c0.2-0.7,0.3-1.4,0.4-2l-89.7-38.4L153,65.9z"/>
<path class="st0" d="M326.1,140.6l24.2,12.9l-9,19.2l1.8,0.8l9.8-20.9l-24.1-12.9l-0.3,0.1C327.7,140,326.9,140.3,326.1,140.6z"/>
<path class="st0" d="M354.1,154.6l-0.5,0l-0.1,2l0.5,0c7.8,0.5,16.2,13.5,17.7,15.8l-5.2,12.2l1.8,0.8l5.6-13.2l-0.3-0.4
	C373.3,171.1,363.8,155.2,354.1,154.6z"/>
<path class="st0" d="M283,104l1.6,2.4c0.6-0.9,1.1-1.9,1.2-3.1c0-1.5-0.4-3.1-1.3-3.1c-1.1,0-2.3,1.3-2.3,4.1L283,104z"/>
<path d="M530.6,243.2c-9.3-3.5-110.1-53.6-116.7-56.9l13.3,20.4L406.5,188c-3.2,0.5-7.7,0.6-11.3-3c-5.6-5.6-8.3-10.3-8.7-11
	c-8-6.1-29.1-21.7-31.7-22.2l-0.2,0l-5-7.4l-10-4.6c-1.2-0.6-2.3-1.3-3.2-2.3l-7.5,2.2l24.1,12.9l-9.8,20.9l-1.8-0.8l9-19.2
	l-24.2-12.9c-1.7,0.5-3.4,1.2-5.3,1.9l-4.6,10.1c2.7,1.5,5.3,2.2,7.9,2.2c0.3,0,0.7,0,0.8,0l8.5-1.7l-1.4,8.6
	c-0.1,0.7-0.2,1-0.2,1.7c0,1.6,0.4,4.1,1.1,7.5l1.6,7.3h-4.6c0,0.1,0,0.2,0.1,0.3l0,0.1l0,0.1c-0.1,0.3-1.9,7.8,4.5,11.8l0.1,0.1
	c0.1,0.1,2.5,3.4,2.4,5.7c0.2,0.5,1.2,2.8,3.9,2.6c3.8-0.3,15,9.9,15.5,13.3c0.4,3,0.7,8,0.8,9.1c0.1,0.1,0.4,0.3,0.7,0.2
	c0.4-0.1,1.3-0.5,2.5-3.5c1.9-4.7,2.5-7.6,2.7-8.4c-3.1-3.5-6.7-7.2-7.5-7.3c-0.2,0-0.7-0.1-5.8-3.7c-1.1,0-1.8-0.2-1.9-0.2
	l-0.1-0.1l-3-1.9l0-0.4c0.1-0.2,0.2-0.4,0.6-0.5l-0.1-0.1h0c-5.1-3.7-10.3-7.5-10.3-7.6l-0.1-0.1l-0.1-0.1c-0.1-0.2-2.5-5.9,0.1-9
	c2.6-3,4.9-5.1,8.7-3.2c3.4,1.7,8.2,5.8,8.7,7.3l0.1,0.2c2.1,6.3-0.8,9.1-3.7,10.2l-0.2,0.3c1-0.2,2.6-0.7,3.9-2.1
	c1.5-1.7,2.1-4.3,1.7-7.6l-0.1-0.7l0.7,0.1c0.1,0,3.4,0.6,4,2.9c0.4,1.5,0.1,4.6-1.6,6.9c-1.3,1.8-3.3,2.7-5.8,2.8
	c-1.3,0-2.4,0.1-3.2,0.2c0.7,0.5,1.5,1,2.2,1.5c1.9-0.1,5.6-1.1,9.3-6.1l0.2-0.1c0.2-0.1,4.3-2.4,9.2,0c5,2.5,12.7,12.1,15.1,18.6
	c2.2,6.2,2.4,14.7,2.5,16.3c1.1,0.8,6.5,4.3,11.8,4.8c5,0.4,10.4-2.5,11.9-3.4l-0.3-0.4l6.5-4.3c-1.8-3.9-12-25.3-32.6-44.8l3.6,7
	l-5-0.7l0.3-2l1.2,0.2l-6.8-13.2l4,3.5c26.1,22.8,37.5,49.8,37.6,50l0.3,0.8l-6,4l94.6,81.9l29.7-57.8c0-0.1,0.8-1.6,0.1-3.5
	C536.3,246.2,534.1,244.5,530.6,243.2z M368.3,185.4l-1.8-0.8l5.2-12.2c-1.5-2.4-9.9-15.3-17.7-15.8l-0.5,0l0.1-2l0.5,0
	c9.7,0.7,19.1,16.6,19.5,17.2l0.3,0.4L368.3,185.4z"/>
<path d="M309.2,147.3c2,1.9,3.9,3.4,5.7,4.5l3.9-8.6C315.4,144.6,312,146,309.2,147.3z"/>
<path d="M251.1,118.9c-1.6-2.1-3.7-4.4-6.1-6l-3.8-2.5l1.4-4.3c0.2-0.5,0.3-1,0.4-1.5L153,65.9l0.8-1.8l89.7,38.4
	c0.1-1,0.2-1.8,0.2-2.5c0-1.1-0.1-1.8-0.1-1.9l-0.4-1.8L20,2.3l-4.1,6.5l134.1,60l-0.4,0.5c0,0-3.1,3.7-2.4,7.5
	c0.4,2,1.8,3.8,4.2,5.1l6.3,3.3l76.4,35.9c0.8,0.1,1.7,0.1,2.4,0.1C240.9,121.3,245.6,120.5,251.1,118.9z"/>
<path class="st2" d="M422.9,133.2c1.3,20.1,8.6,27.8,19.6,27.8c5.6,0,12.4-3.7,12.4-10.5c0-4.1-3.8-6.9-9.1-6.9
	c-1.4,0-2.7,0.3-4.2,0.6c0.6-3.6,0.9-5.8,0.9-7.8c0-1.4-0.1-2.8-0.4-4.6c7,0.6,16.9,1.5,24.7,1.5c5.6,0,12-0.4,22-1.4
	c-0.9,2.9-1.3,5.5-1.3,7.6c0,1.8,0.3,3.2,0.6,4.1l-6.1,0.3c-3.8,2.8-5.2,10.4-5.2,17.4c0,4.4,0.6,8.4,1.4,11h-9.5
	c-2.2-5.1-5.4-5.9-5.4-5.9c-1.2,0-4.7,4.6-5.6,5.9h-39.2c-6.8-11.8-15.7-17-21.2-18.2c2.6-3.7,4-11.4,4-23.2V125
	c0-9.5-3.1-18.3-3.1-18.3c10.2-4,15.4-9.7,21.4-18.8h29.7c0,0,4.4,5.2,8.1,7.8c1.3-1.2,7.4-8.1,7.4-8.3h14.2
	c-2,5.6-2.7,10.9-2.7,15.5c0,7.2,1.8,12.5,1.8,12.5c-4.7-0.3-7.7-0.4-10-0.4c-2.6,0-4.4,0.1-6.9,0.6v-0.9c0-6.1-1.4-16.1-14.8-16.1
	h-1c-21.4,1-22.7,23.4-22.7,29.2v1.3L422.9,133.2z"/>
<line class="st3" x1="187.8" y1="251.8" x2="365.3" y2="251.8"/>
<g>
	<path class="st2" d="M150.2,264.8c0,0,2.6,4.1,5.2,4.8c0,0-0.9,2.1-0.9,4.9v0.5c0,0.3,0,0.6,0,1c0,1.9,0.1,3.9,0.8,5.4
		c-2.8,0.9-4.5,2.8-4.8,4.4h-11.2c-2.2-3.4-4.9-4.7-4.9-4.7c0.8-1.8,1-3.9,1.1-6.1c0-1.9-0.2-3.6-0.9-5.5c2.4-0.8,5.2-4.1,5.2-4.7
		H150.2z M145,267.4c-4,0-4.2,6.3-4.2,7.4v0.5c0,3.5,0.8,8,4.1,8c3.1,0,4.1-4.5,4.1-8v-0.7C149,272.9,148.8,267.4,145,267.4z"/>
	<path class="st2" d="M172.8,264.6c-0.1,0.2-0.2,1-0.2,1.7c0,0.4,0,0.9,0.1,1.2c0,0-0.8,0-1.7,0.8c-1.5,1.2-1.5,5.9-1.5,6.6v0.5
		c0,3.2,0.5,7.8,4.7,7.8c2.5-0.2,4.5-2.3,4.5-8.3c0,0-0.2-6.9-2.2-7.6c-0.3-0.1-0.7-0.1-1-0.1c0-0.2,0.1-0.6,0.1-1.3
		c0-0.4,0-0.8-0.2-1.4c1.8,0,10,0,10.1,0c-0.1,0.6-0.2,1-0.2,1.5c0,0.7,0.1,1.2,0.1,1.2c0,0.1-1,0-1.6,0.7c-0.7,0.8-1.6,2.5-1.6,6.9
		c0,4.3,0.8,6.3,0.8,6.3c-3.6,0.6-4.9,4.5-4.9,4.5h-9.7c-2-3.6-5.5-4.5-5.5-4.5c0.7-2.3,0.9-4.9,0.9-7.6v-0.7c0-2.5-0.4-5.3-2.8-5.3
		c0-0.3,0.1-0.6,0.1-0.9c0-0.7-0.1-1.5-0.3-2H172.8z"/>
	<path class="st2" d="M193.9,264.8c2.9,0,8.5-0.1,13.7-0.1c5.9,0,11.3,0.1,11.3,0.1s-0.4,1.7-0.4,3.9c0,1.1,0.1,2.2,0.3,3.4
		c0,0-1.3-0.2-2.8-0.2c-0.5,0-1,0-1.5,0.1c0,0,0.2-0.5,0.2-1.2c0-1.4-0.4-3.7-3.1-3.7c-3.2,0-3.5,5.4-3.5,7.3v0.7
		c0.1,4.4,0.2,7.9,3.1,8c0,0.2-0.1,0.6-0.1,1.1c0,0.4,0,1,0.1,1.5h-11.7c0.1-0.2,0.2-0.9,0.2-1.7c0-0.5,0-1-0.1-1.4
		c2.5,0,3.5-3.2,3.5-6v-2.3c0-2-0.3-6.9-3.3-6.9h-0.2c-3,0.2-3.3,2.8-3.3,4.2c0,0.4,0.1,1,0.1,1c-0.9-0.2-1.8-0.3-2.5-0.3
		c-1.1,0-1.9,0.2-1.9,0.2s0.4-1.6,0.4-3.9c0-1.1-0.1-2.5-0.4-3.8C191.8,264.8,192.6,264.8,193.9,264.8z"/>
	<path class="st2" d="M229,273.6c0-2.2-0.2-6.2-3-6.2c0-0.3,0-0.7,0-1.1c0-0.8-0.1-1.6-0.2-1.7c0.1,0,2.4,0,5.4,0
		c6.2,0,15.6,0,15.6,0c0,0-0.4,2-0.4,4.4c0,1,0.1,2.1,0.2,3.1c-0.7-0.2-1.5-0.3-2.2-0.3c-0.7,0-1.3,0.1-1.8,0.3c0,0,0-0.4,0-0.6
		c0-1.1-0.4-4.4-4.4-4.4c-3.8,0-4.2,3.8-4.2,5.7c0,0.5,0,0.8,0,0.8s1,0.1,2.1,0.1c0.3,0,0.7,0,1,0c1-0.1,1.5-0.1,1.5-0.1l-0.1,1.4
		c0,0.4-0.1,0.8-0.1,1.2c0,0.4,0,0.7,0.1,1c-0.5-0.2-1.3-0.2-2-0.2c-0.8,0-1.7,0.1-2.5,0.3v0.7c0,2.3,0.3,5,3.1,5
		c-0.1,0.3-0.1,0.6-0.1,1c0,0.5,0.1,1.1,0.2,1.9h-11.6c0.1-0.7,0.2-1.2,0.2-1.6c0-0.4-0.1-0.6-0.1-0.8c0,0,0-0.1,0-0.1
		c0.2,0.1,0.4,0.1,0.5,0.1c1.8,0,2.6-3.6,2.6-8.4C228.9,274.9,229,274.5,229,273.6z"/>
	<path class="st2" d="M264.1,264.7c-0.1,0.5-0.2,1-0.2,1.4c0,0.7,0.1,1.2,0.1,1.2c-0.9,0-1.7,0.6-2.2,1.3c-0.7,1.2-0.8,5.1-0.8,6
		v0.7c0,3.8,0.3,7.4,3.2,7.4c-0.1,0.3-0.1,0.6-0.1,1.1c0,0.6,0.1,1.3,0.1,1.7c0,0.1,0,0.1,0,0.2H253c0.1-0.3,0.2-1.1,0.2-1.8
		c0-0.4,0-0.7-0.1-0.9c0.1,0,0.3,0,0.4,0c2.4,0,2.4-5.1,2.4-7.6V275c0,0,0-0.5,0-1.3c0-2-0.1-5.9-2-6.2c-0.4-0.1-0.9-0.1-0.9-0.1
		c0-0.3,0-0.5,0-0.7c0-1.2-0.2-1.9-0.2-1.9H264.1z"/>
	<path class="st2" d="M272.9,264.8c2.9,0,8.5-0.1,13.7-0.1c5.9,0,11.3,0.1,11.3,0.1s-0.4,1.7-0.4,3.9c0,1.1,0.1,2.2,0.3,3.4
		c0,0-1.3-0.2-2.8-0.2c-0.5,0-1,0-1.5,0.1c0,0,0.2-0.5,0.2-1.2c0-1.4-0.4-3.7-3.1-3.7c-3.2,0-3.5,5.4-3.5,7.3v0.7
		c0.1,4.4,0.2,7.9,3.1,8c0,0.2-0.1,0.6-0.1,1.1c0,0.4,0,1,0.1,1.5h-11.7c0.1-0.2,0.2-0.9,0.2-1.7c0-0.5,0-1-0.1-1.4
		c2.5,0,3.5-3.2,3.5-6v-2.3c0-2-0.3-6.9-3.3-6.9h-0.2c-3,0.2-3.3,2.8-3.3,4.2c0,0.4,0.1,1,0.1,1c-0.9-0.2-1.8-0.3-2.5-0.3
		c-1.1,0-1.9,0.2-1.9,0.2s0.4-1.6,0.4-3.9c0-1.1-0.1-2.5-0.4-3.8C270.9,264.8,271.7,264.8,272.9,264.8z"/>
	<path class="st2" d="M306.7,264.8c2.9,0,8.5-0.1,13.7-0.1c5.9,0,11.3,0.1,11.3,0.1s-0.4,1.7-0.4,3.9c0,1.1,0.1,2.2,0.3,3.4
		c0,0-1.3-0.2-2.8-0.2c-0.5,0-1,0-1.5,0.1c0,0,0.2-0.5,0.2-1.2c0-1.4-0.4-3.7-3.1-3.7c-3.2,0-3.5,5.4-3.5,7.3v0.7
		c0.1,4.4,0.2,7.9,3.1,8c0,0.2-0.1,0.6-0.1,1.1c0,0.4,0,1,0.1,1.5h-11.7c0.1-0.2,0.2-0.9,0.2-1.7c0-0.5,0-1-0.1-1.4
		c2.5,0,3.5-3.2,3.5-6v-2.3c0-2-0.3-6.9-3.3-6.9h-0.2c-3,0.2-3.3,2.8-3.3,4.2c0,0.4,0.1,1,0.1,1c-0.9-0.2-1.8-0.3-2.5-0.3
		c-1.1,0-1.9,0.2-1.9,0.2s0.4-1.6,0.4-3.9c0-1.1-0.1-2.5-0.4-3.8C304.7,264.8,305.5,264.8,306.7,264.8z"/>
	<path class="st2" d="M359,264.7c-0.2,1.1-0.4,2.6-0.4,4c0,1.3,0.1,2.6,0.3,3.4c0,0-0.9-0.2-2.1-0.2c-0.6,0-1.4,0-2.1,0.2
		c0,0,0-0.2,0-0.6c0-1.2-0.4-4.2-4.1-4.2c-3.8,0-4.1,3.9-4.1,5.4c0,0.4,0,0.6,0,0.6s0.7,0.1,1.9,0.1c0.7,0,1.5-0.1,2.4-0.2l-0.1,1.6
		v1c0,0.5,0,0.7,0.2,1.2c0,0-1.9-0.4-3-0.4c-0.2,0-1.1,0-1.1,0c-0.1,0.4-0.1,0.8-0.1,1.3c0,2.3,1.3,4.9,4.1,4.9c1.9,0,4-1.6,4-3.8
		c0-0.4-0.1-0.9-0.3-1.4c0.6,0.1,1.6,0.2,2.6,0.2c1.1,0,2.1-0.1,2.8-0.2c-0.4,1.3-0.5,2.5-0.5,4c0,1.1,0.1,2.4,0.4,4h-21.2
		c0.1-0.2,0.2-1.3,0.2-2.2c0-0.3,0-0.6-0.1-0.8c0.1,0,0.2,0,0.3,0c1.9,0,2.5-4.9,2.5-6.8v-1.4c0-2.5-0.2-7.2-2.8-7.2
		c-0.1,0-0.3,0-0.4,0c0,0,0.2-0.6,0.2-1.4c0-0.4,0-0.9-0.2-1.3C338.1,264.7,358.9,264.7,359,264.7z"/>
	<path class="st2" d="M382.6,264.7c0.2,0.4,2.7,2.9,5.1,3.4c0,0-0.3,1.1-0.3,2.5c0,0.7,0.1,1.4,0.3,2.2c-1.2,0.2-2.5,1.5-2.9,2
		l-0.3,0.3c0.1,0.5,1.8,2.2,3.1,2.8c-0.4,0.6-0.5,1.4-0.5,2.1c0,1.6,0.9,3.1,3.5,3.2c-0.1,0.3-0.1,0.5-0.1,0.8c0,0.4,0.1,1,0.3,1.8
		H384c-0.1-0.3-1.5-1.8-2.3-2.1c0.2-0.2,0.7-1.2,0.7-2.5c0-2-1-4.6-4.6-4.6h-0.2c-1.5,0-3.4,0.1-3.4,0.1v1.5c0,1.8,0.2,4.9,2.6,4.9
		c0.2,0,0.4,0,0.6-0.1c0,0.3,0,0.5,0,0.7c0,0.6,0.1,1.3,0.3,2h-11.7c0.1-0.4,0.1-0.9,0.1-1.4c0-0.4,0-0.9-0.1-1.1c0.1,0,0.2,0,0.3,0
		c2.7,0,2.8-5.4,2.8-7.6v-0.7c-0.1-1.7,0.2-7.5-2.6-7.5c-0.1,0-0.3,0-0.4,0c0,0-0.1-2.7-0.1-2.7H382.6z M373.9,273.5
		c0,0.4,1.3,0.4,2.6,0.4c2.6,0,5.7-0.8,5.7-3.4c0-0.1,0-0.2,0-0.4c-0.3-1.9-2.1-2.9-3.9-2.9c-1,0-2,0.3-2.8,1
		c-1.3,1.2-1.6,2.8-1.7,4.5C373.8,273.3,373.9,273.3,373.9,273.5z"/>
	<path class="st2" d="M407,264.7c0.9,1.2,1.7,1.6,1.7,1.6c0.8-0.4,1.5-1.8,1.5-1.7h4.3c-0.3,1.1-0.3,2.2-0.3,2.9
		c0,1.1,0.2,1.7,0.2,1.7c-0.7-0.2-1.4-0.3-2-0.3c-1.2,0-2.1,0.3-2.1,0.3s-0.2-2-3.6-2c-1.8,0-4.8,0.4-4.8,2.7v0.1
		c0,0.7,0.1,2.4,4.4,2.6c4.6-0.2,4-0.3,5.3-0.4c0.5,0.9,3.2,3.1,4.8,3.7c-0.1,0.4-0.3,1.7-0.3,3.1c0,1,0,2.1,0.5,3.2
		c-2.1,0.6-4,2.8-4.3,3.6h-8.1c-0.1,0-1.2-1.7-1.6-1.7c-0.4,0-1.7,1.7-1.7,1.7h-3.8c0.2-0.5,0.2-1.4,0.2-2.2c0-0.7,0-1.4-0.1-1.9
		c0.5,0.1,1.1,0.1,1.6,0.1c1,0,2-0.1,3-0.2c0.6,1.3,2.4,1.7,4.7,1.7c2.5,0,5.2-0.7,5.4-2.6v-0.2c0-2.1-2.7-3-5.3-3
		c-2.2,0-4.4,0.4-5.3,1.1c-1.2-2.1-3-2.8-3.9-3.2l-0.2-0.1c0,0,0.5-1.6,0.5-3.4c0-1.1-0.2-2.6-0.4-3.1c1.4-0.6,3.8-2.2,4.6-4
		L407,264.7z"/>
</g>
<path class="st0" d="M264.1,131.1c-5.1,0.4-21.6,8.4-21.6,15.2c0,3.7,1.8,6,4.3,7.1l24.8-13.1C269.1,136.1,265.3,131,264.1,131.1z"
	/>
<path class="st0" d="M280.8,116.3c2.2,0,10.5-5,11-12.7c0-6.4-3.6-9.3-7.3-9.3c-4.1,0-8.3,3.5-8.3,10.2
	C276.2,108.6,277.4,115,280.8,116.3z"/>
<path class="st0" d="M273.5,145.1c0-0.1,0-0.1,0-0.2l-15.7,8.3C264.6,151.6,273.5,148.6,273.5,145.1z"/>
<polygon class="st0" points="481.1,29.9 528.5,4.7 452,20.2 479,30.4 480.8,29.4 "/>
<path d="M242.4,146.3c0-6.8,16.5-14.8,21.6-15.2c1.2-0.1,5,5,7.4,9.2l16.9-9c-2.9-3.7-5.6-7.6-5.6-9c1.2-3.1,16.6-3.3,16.6-3.3
	c1.3-6.3,6.9-10.9,6.9-10.9c-1-2.3-1.3-4.9-1.3-7c0-2.6,0.4-4.4,0.4-4.4c-9.1-3.1-13.3-8.7-13.3-8.7H267c-7.4,7.2-17.7,9-17.7,9
	s0.3,1.2,0.3,3.1c0,2-0.3,4.9-1.3,7.9c7.7,5.1,11.9,14.3,11.9,14.3c-7.8,2.8-15.7,5-23.7,5c-1.5,0-3.2-0.1-4.7-0.3
	c0,0-0.3,0.9-0.5,1.4c-1.5,3.7-4,9.6-10.5,13.3c2.6,5.4,4,10.6,4,16.5c0,1.4-0.1,2.8-0.3,4.2c0,0,1.4,0.2,3.5,0.9l18.7-9.9
	C244.3,152.3,242.4,150.1,242.4,146.3z M284.5,94.3c3.7,0,7.3,2.9,7.3,9.3c-0.5,7.7-8.8,12.7-11,12.7c-3.5-1.3-4.6-7.7-4.6-11.8
	C276.2,97.7,280.4,94.3,284.5,94.3z"/>
<path d="M273.5,145.1c0,3.5-8.9,6.6-15.7,8.1l-24,12.7c2.5,1.4,5.3,3.4,7.8,6.3h16.6c0,0,12.4-13.2,20.7-16.4
	c1.3,0.5,3.2,2.6,4.1,8.8c4.4,1.2,8.3,4,11,7.6H327c-1-4.6-1.3-7.2-1.3-8.8c0-1.2,0.1-1.9,0.3-2.7c-0.6,0.1-1.3,0.1-1.9,0.1
	c-10.7,0-19.1-8.7-25-15.5c0,0,17.4-8.3,27.6-11.3c0,0-2.4-3.1-5-6.5c-1.3-1.7-3.1-4.4-3.6-6.1c0,0-9.6,7.8-9.3,7.7
	c-6.4,4.9-14.5,9.1-14.5,9.1c-0.6-0.5-1.6-1.5-2.7-2.9l-18.1,9.6C273.5,144.9,273.5,145,273.5,145.1z"/>
<polygon class="st4" points="476.5,65.5 476.8,65.9 476.5,65.5 "/>
<polygon points="482,31.6 541.7,0 482,31.6 "/>
<polygon points="479.5,35.8 476.5,65.5 476.5,65.5 479.5,35.8 "/>
<polygon points="482.5,32.5 536.4,3.9 477.7,63.6 480.5,35.2 479.5,35.8 476.5,65.5 476.8,65.9 541.7,0 482,31.6 "/>
<g>
	<polygon points="483.2,33.8 480.5,35.2 477.7,63.6 536.4,3.9 482.5,32.5 	"/>
	<polygon points="476.7,31.6 479,30.4 452,20.2 528.5,4.7 481.1,29.9 482,31.6 541.7,0 445.3,19.5 445.6,20 	"/>
	<path d="M479.8,32.8L290,133.3c0.6,0.7,1.1,1.4,1.6,2l187.8-99.5L479.8,32.8z"/>
</g>
<path d="M42.4,264.5l188.7-99.9c-1.1-0.5-2.2-0.9-3.1-1.2l-55.7,29.5c1.1,0.6,1.7,1,1.7,1l-0.1,0.7c0,0-1,0.2-2.7,0.5
	c-0.8,0.1-1.9,0.2-3,0.3c-0.2,0-0.4,0-0.5,0l-18.5,9.8c1.1,0.6,1.7,1,1.7,1l-0.1,0.7c0,0-1,0.2-2.7,0.5c-0.8,0.1-1.9,0.2-3,0.3
	c-0.2,0-0.4,0-0.5,0l-20.1,10.7c1.1,0.6,1.7,1,1.7,1l-0.1,0.7c0,0-1,0.2-2.7,0.5c-0.8,0.1-1.9,0.2-3,0.3c-0.2,0-0.4,0-0.5,0
	l-14.1,7.4c1.1,0.6,1.7,1,1.7,1l-0.1,0.7c0,0-1,0.2-2.7,0.5c-0.8,0.1-1.9,0.2-3,0.3c-0.2,0-0.4,0-0.5,0l-18.5,9.8
	c1.1,0.6,1.7,1,1.7,1l-0.1,0.7c0,0-1,0.2-2.7,0.5c-0.8,0.1-1.9,0.2-3,0.3c-0.2,0-0.4,0-0.5,0l-20.1,10.7c1.1,0.6,1.7,1,1.7,1
	l-0.1,0.7c0,0-1,0.2-2.7,0.5c-0.8,0.1-1.9,0.2-3,0.3c-0.2,0-0.4,0-0.5,0L39,263.4l2.3,4.4l15-7.9c0-0.1,0.1-0.1,0.1-0.2
	c0.6-0.9,1.1-1.6,1.6-2.2c1-1.2,1.6-1.9,1.6-1.9l0.7,0.2c0,0,0.1,0.7,0.1,1.8l20.7-10.9c0-0.1,0.1-0.1,0.1-0.2
	c0.6-0.9,1.1-1.6,1.6-2.2c1-1.2,1.6-1.9,1.6-1.9l0.7,0.2c0,0,0.1,0.7,0.1,1.8l19.1-10.1c0-0.1,0.1-0.1,0.1-0.2
	c0.6-0.9,1.1-1.6,1.6-2.2c1-1.2,1.6-1.9,1.6-1.9l0.7,0.2c0,0,0.1,0.7,0.1,1.8l14.6-7.7c0-0.1,0.1-0.1,0.1-0.2
	c0.6-0.9,1.1-1.6,1.6-2.2c1-1.2,1.6-1.9,1.6-1.9l0.7,0.2c0,0,0.1,0.7,0.1,1.8l20.7-10.9c0-0.1,0.1-0.1,0.1-0.2
	c0.6-0.9,1.1-1.6,1.6-2.2c1-1.2,1.6-1.9,1.6-1.9l0.7,0.2c0,0,0.1,0.7,0.1,1.8l19.1-10.1c0-0.1,0.1-0.1,0.1-0.2
	c0.6-0.9,1.1-1.6,1.6-2.2c1-1.2,1.6-1.9,1.6-1.9l0.7,0.2c0,0,0.1,0.7,0.1,1.8l58.8-31.2c-0.9-0.5-1.9-1-2.7-1.4L42.4,264.5z"/>
<path d="M479.8,32.8L479.8,32.8l-2.5-1.4l-188.8,100c0.5,0.7,1.1,1.3,1.6,2L479.8,32.8z"/>
<path d="M272.7,142.5c0.5,1,0.8,1.8,0.9,2.4l18.1-9.6c-0.5-0.6-1.1-1.3-1.6-2L272.7,142.5z"/>
<path d="M272.7,142.5l17.4-9.2c-0.5-0.6-1.1-1.3-1.6-2l-16.9,9C271.9,141.1,272.3,141.8,272.7,142.5z"/>
<path d="M250.5,154.3c-1.3-0.1-2.6-0.3-3.7-0.8l-18.7,9.9c0.9,0.3,2,0.7,3.1,1.2L250.5,154.3z"/>
<path d="M251,154.3c-0.2,0-0.4,0-0.5,0l-19.4,10.3c0.9,0.4,1.8,0.8,2.7,1.4l24-12.7C254.8,153.9,252.2,154.3,251,154.3z"/>
<polygon points="482.1,31.6 481.1,29.9 479.7,30.6 479,30.4 476.6,31.5 479.7,32.8 "/>
<polygon points="480.5,35.2 483.2,33.8 482.5,32.5 480.7,33.4 "/>
<polygon points="479.8,32.8 479.8,32.8 479.5,35.8 479.5,35.8 "/>
<polygon points="479.8,32.8 479.8,32.8 482,31.6 482,31.6 479.8,32.8 "/>
<polygon points="479.5,35.8 480.5,35.2 480.7,33.4 482.5,32.5 482,31.6 479.8,32.8 "/>
<path d="M102.6,237.3c-0.6,1.1-1.3,2.3-1.9,3.6c-0.6,1.3-1.2,2.7-1.7,4.1c-0.5,1.5-0.9,3-1.2,4.6c-0.4,1.6-0.7,3.2-1.2,4.8
	c-0.9,3.2-1.8,6.4-2.5,9.4c-0.8,3-1.5,5.9-2.1,8.3c-1.2,4.9-1.9,8.1-1.9,8.1l0.7,0.2c0,0,1.5-3,3.6-7.5c1.1-2.3,2.3-4.9,3.6-7.8
	c1.3-2.8,2.6-5.9,3.9-8.9c0.7-1.5,1.4-3,2.1-4.5c0.7-1.5,1.4-2.9,1.9-4.4c0.5-1.5,0.9-2.9,1.2-4.3c0.3-1.4,0.6-2.7,0.8-4
	c0.2-1.2,0.3-2.4,0.4-3.5c0.1-1,0.1-2,0.1-2.7c0-0.2,0-0.4,0-0.6l-4.1,2.2C103.7,235.3,103.2,236.3,102.6,237.3z"/>
<path d="M107.6,230.3c0,0-0.7,0.6-1.6,1.9c-0.5,0.6-1,1.3-1.6,2.2c0,0.1-0.1,0.1-0.1,0.2l4.1-2.2c0-1.2-0.1-1.8-0.1-1.8L107.6,230.3
	z"/>
<path class="st5" d="M105,227.8c-0.8-0.4-1.7-0.8-2.7-1.3c-1.1-0.5-2.3-0.9-3.6-1.4c-1.3-0.5-2.8-0.9-4.3-1.3
	c-1.5-0.4-3.2-0.8-4.9-1.1c-1.7-0.3-3.5-0.4-5.3-0.5c-1.8-0.1-3.7-0.3-5.5-0.5c-3.7-0.4-7.4-0.8-10.8-1.1c-3.5-0.3-6.7-0.6-9.5-0.8
	c-5.5-0.4-9.2-0.7-9.2-0.7l-0.1,0.7c0,0,3.6,1,8.9,2.5c2.7,0.7,5.8,1.5,9.2,2.4c3.4,0.9,7,1.7,10.6,2.6c1.8,0.4,3.6,0.9,5.3,1.4
	c1.8,0.5,3.5,1,5.2,1.3c1.7,0.3,3.4,0.5,5,0.6c1.6,0.1,3.1,0.2,4.5,0.2c1.2,0,2.3,0,3.3-0.1l4.6-2.4
	C105.5,228,105.3,227.9,105,227.8z"/>
<path d="M104.6,230.2c1.7-0.2,2.7-0.5,2.7-0.5l0.1-0.7c0,0-0.6-0.4-1.7-1l-4.6,2.4c0.2,0,0.4,0,0.5,0
	C102.8,230.5,103.8,230.4,104.6,230.2z"/>
<path d="M79.4,249.6c-0.6,1.1-1.3,2.3-1.9,3.6c-0.6,1.3-1.2,2.7-1.7,4.1c-0.5,1.5-0.9,3-1.2,4.6c-0.4,1.6-0.7,3.2-1.2,4.8
	c-0.9,3.2-1.8,6.4-2.5,9.4c-0.8,3-1.5,5.9-2.1,8.3c-1.2,4.9-1.9,8.1-1.9,8.1l0.7,0.2c0,0,1.5-3,3.6-7.5c1.1-2.3,2.3-4.9,3.6-7.8
	c1.3-2.8,2.6-5.9,3.9-8.9c0.7-1.5,1.4-3,2.1-4.5c0.7-1.5,1.4-2.9,1.9-4.4c0.5-1.5,0.9-2.9,1.2-4.3c0.3-1.4,0.6-2.7,0.8-4
	c0.2-1.2,0.3-2.4,0.4-3.5c0.1-1,0.1-2,0.1-2.7c0-0.2,0-0.4,0-0.6l-4.1,2.2C80.6,247.6,80,248.5,79.4,249.6z"/>
<path d="M84.5,242.5c0,0-0.7,0.6-1.6,1.9c-0.5,0.6-1,1.3-1.6,2.2c0,0.1-0.1,0.1-0.1,0.2l4.1-2.2c0-1.2-0.1-1.8-0.1-1.8L84.5,242.5z"
	/>
<path class="st5" d="M81.9,240c-0.8-0.4-1.7-0.8-2.7-1.3c-1.1-0.5-2.3-0.9-3.6-1.4c-1.3-0.5-2.8-0.9-4.3-1.3
	c-1.5-0.4-3.2-0.8-4.9-1.1c-1.7-0.3-3.5-0.4-5.3-0.5c-1.8-0.1-3.7-0.3-5.5-0.5c-3.7-0.4-7.4-0.8-10.8-1.1c-3.5-0.3-6.7-0.6-9.5-0.8
	c-5.5-0.4-9.2-0.7-9.2-0.7l-0.1,0.7c0,0,3.6,1,8.9,2.5c2.7,0.7,5.8,1.5,9.2,2.4c3.4,0.9,7,1.7,10.6,2.6c1.8,0.4,3.6,0.9,5.3,1.4
	c1.8,0.5,3.5,1,5.2,1.3c1.7,0.3,3.4,0.5,5,0.6c1.6,0.1,3.1,0.2,4.5,0.2c1.2,0,2.3,0,3.3-0.1l4.6-2.4C82.3,240.3,82.1,240.2,81.9,240
	z"/>
<path d="M81.5,242.5c1.7-0.2,2.7-0.5,2.7-0.5l0.1-0.7c0,0-0.6-0.4-1.7-1l-4.6,2.4c0.2,0,0.4,0,0.5,0
	C79.6,242.7,80.6,242.6,81.5,242.5z"/>
<path d="M54.7,262.7c-0.6,1.1-1.3,2.3-1.9,3.6c-0.6,1.3-1.2,2.7-1.7,4.1c-0.5,1.5-0.9,3-1.2,4.6c-0.4,1.6-0.7,3.2-1.2,4.8
	c-0.9,3.2-1.8,6.4-2.5,9.4c-0.8,3-1.5,5.9-2.1,8.3c-1.2,4.9-1.9,8.1-1.9,8.1l0.7,0.2c0,0,1.5-3,3.6-7.5c1.1-2.3,2.3-4.9,3.6-7.8
	c1.3-2.8,2.6-5.9,3.9-8.9c0.7-1.5,1.4-3,2.1-4.5c0.7-1.5,1.4-2.9,1.9-4.4c0.5-1.5,0.9-2.9,1.2-4.3c0.3-1.4,0.6-2.7,0.8-4
	c0.2-1.2,0.3-2.4,0.4-3.5c0.1-1,0.1-2,0.1-2.7c0-0.2,0-0.4,0-0.6l-4.1,2.2C55.8,260.7,55.2,261.6,54.7,262.7z"/>
<path d="M59.7,255.7c0,0-0.7,0.6-1.6,1.9c-0.5,0.6-1,1.3-1.6,2.2c0,0.1-0.1,0.1-0.1,0.2l4.1-2.2c0-1.2-0.1-1.8-0.1-1.8L59.7,255.7z"
	/>
<path class="st5" d="M57.1,253.2c-0.8-0.4-1.7-0.8-2.7-1.3c-1.1-0.5-2.3-0.9-3.6-1.4c-1.3-0.5-2.8-0.9-4.3-1.3
	c-1.5-0.4-3.2-0.8-4.9-1.1c-1.7-0.3-3.5-0.4-5.3-0.5c-1.8-0.1-3.7-0.3-5.5-0.5c-3.7-0.4-7.4-0.8-10.8-1.1c-3.5-0.3-6.7-0.6-9.5-0.8
	c-5.5-0.4-9.2-0.7-9.2-0.7l-0.1,0.7c0,0,3.6,1,8.9,2.5c2.7,0.7,5.8,1.5,9.2,2.4c3.4,0.9,7,1.7,10.6,2.6c1.8,0.4,3.6,0.9,5.3,1.4
	c1.8,0.5,3.5,1,5.2,1.3c1.7,0.3,3.4,0.5,5,0.6c1.6,0.1,3.1,0.2,4.5,0.2c1.2,0,2.3,0,3.3-0.1l4.6-2.4
	C57.6,253.4,57.4,253.3,57.1,253.2z"/>
<path d="M56.7,255.6c1.7-0.2,2.7-0.5,2.7-0.5l0.1-0.7c0,0-0.6-0.4-1.7-1l-4.6,2.4c0.2,0,0.4,0,0.5,0
	C54.8,255.9,55.9,255.7,56.7,255.6z"/>
<path d="M174.2,195c0,0-0.7,0.6-1.6,1.9c-0.5,0.6-1,1.3-1.6,2.2c0,0.1-0.1,0.1-0.1,0.2l4.1-2.2c0-1.2-0.1-1.8-0.1-1.8L174.2,195z"/>
<path d="M171.2,195c1.7-0.2,2.7-0.5,2.7-0.5l0.1-0.7c0,0-0.6-0.4-1.7-1l-4.6,2.4c0.2,0,0.4,0,0.5,0
	C169.4,195.2,170.4,195.1,171.2,195z"/>
<path d="M146,214.3c-0.6,1.1-1.3,2.3-1.9,3.6c-0.6,1.3-1.2,2.7-1.7,4.1c-0.5,1.5-0.9,3-1.2,4.6c-0.4,1.6-0.7,3.2-1.2,4.8
	c-0.9,3.2-1.8,6.4-2.5,9.4c-0.8,3-1.5,5.9-2.1,8.3c-1.2,4.9-1.9,8.1-1.9,8.1l0.7,0.2c0,0,1.5-3,3.6-7.5c1.1-2.3,2.3-4.9,3.6-7.8
	c1.3-2.8,2.6-5.9,3.9-8.9c0.7-1.5,1.4-3,2.1-4.5c0.7-1.5,1.4-2.9,1.9-4.4c0.5-1.5,0.9-2.9,1.2-4.3c0.3-1.4,0.6-2.7,0.8-4
	c0.2-1.2,0.3-2.4,0.4-3.5c0.1-1,0.1-2,0.1-2.7c0-0.2,0-0.4,0-0.6l-4.1,2.2C147.2,212.3,146.6,213.2,146,214.3z"/>
<path d="M151.1,207.3c0,0-0.7,0.6-1.6,1.9c-0.5,0.6-1,1.3-1.6,2.2c0,0.1-0.1,0.1-0.1,0.2l4.1-2.2c0-1.2-0.1-1.8-0.1-1.8L151.1,207.3
	z"/>
<path class="st5" d="M148.5,204.8c-0.8-0.4-1.7-0.8-2.7-1.3c-1.1-0.5-2.3-0.9-3.6-1.4c-1.3-0.5-2.8-0.9-4.3-1.3
	c-1.5-0.4-3.2-0.8-4.9-1.1c-1.7-0.3-3.5-0.4-5.3-0.5c-1.8-0.1-3.7-0.3-5.5-0.5c-3.7-0.4-7.4-0.8-10.8-1.1c-3.5-0.3-6.7-0.6-9.5-0.8
	c-5.5-0.4-9.2-0.7-9.2-0.7l-0.1,0.7c0,0,3.6,1,8.9,2.5c2.7,0.7,5.8,1.5,9.2,2.4c3.4,0.9,7,1.7,10.6,2.6c1.8,0.4,3.6,0.9,5.3,1.4
	c1.8,0.5,3.5,1,5.2,1.3c1.7,0.3,3.4,0.5,5,0.6c1.6,0.1,3.1,0.2,4.5,0.2c1.2,0,2.3,0,3.3-0.1l4.6-2.4
	C148.9,205,148.7,204.9,148.5,204.8z"/>
<path d="M148.1,207.2c1.7-0.2,2.7-0.5,2.7-0.5l0.1-0.7c0,0-0.6-0.4-1.7-1l-4.6,2.4c0.2,0,0.4,0,0.5,0
	C146.2,207.5,147.2,207.3,148.1,207.2z"/>
<path d="M121.3,227.4c-0.6,1.1-1.3,2.3-1.9,3.6c-0.6,1.3-1.2,2.7-1.7,4.1c-0.5,1.5-0.9,3-1.2,4.6c-0.4,1.6-0.7,3.2-1.2,4.8
	c-0.9,3.2-1.8,6.4-2.5,9.4c-0.8,3-1.5,5.9-2.1,8.3c-1.2,4.9-1.9,8.1-1.9,8.1l0.7,0.2c0,0,1.5-3,3.6-7.5c1.1-2.3,2.3-4.9,3.6-7.8
	c1.3-2.8,2.6-5.9,3.9-8.9c0.7-1.5,1.4-3,2.1-4.5c0.7-1.5,1.4-2.9,1.9-4.4c0.5-1.5,0.9-2.9,1.2-4.3c0.3-1.4,0.6-2.7,0.8-4
	c0.2-1.2,0.3-2.4,0.4-3.5c0.1-1,0.1-2,0.1-2.7c0-0.2,0-0.4,0-0.6l-4.1,2.2C122.4,225.4,121.8,226.4,121.3,227.4z"/>
<path d="M126.3,220.4c0,0-0.7,0.6-1.6,1.9c-0.5,0.6-1,1.3-1.6,2.2c0,0.1-0.1,0.1-0.1,0.2l4.1-2.2c0-1.2-0.1-1.8-0.1-1.8L126.3,220.4
	z"/>
<path class="st5" d="M123.7,217.9c-0.8-0.4-1.7-0.8-2.7-1.3c-1.1-0.5-2.3-0.9-3.6-1.4c-1.3-0.5-2.8-0.9-4.3-1.3
	c-1.5-0.4-3.2-0.8-4.9-1.1c-1.7-0.3-3.5-0.4-5.3-0.5c-1.8-0.1-3.7-0.3-5.5-0.5c-3.7-0.4-7.4-0.8-10.8-1.1c-3.5-0.3-6.7-0.6-9.5-0.8
	c-5.5-0.4-9.2-0.7-9.2-0.7l-0.1,0.7c0,0,3.6,1,8.9,2.5c2.7,0.7,5.8,1.5,9.2,2.4c3.4,0.9,7,1.7,10.6,2.6c1.8,0.4,3.6,0.9,5.3,1.4
	c1.8,0.5,3.5,1,5.2,1.3c1.7,0.3,3.4,0.5,5,0.6c1.6,0.1,3.1,0.2,4.5,0.2c1.2,0,2.3,0,3.3-0.1l4.6-2.4
	C124.2,218.1,124,218,123.7,217.9z"/>
<path d="M123.3,220.4c1.7-0.2,2.7-0.5,2.7-0.5l0.1-0.7c0,0-0.6-0.4-1.7-1l-4.6,2.4c0.2,0,0.4,0,0.5,0
	C121.4,220.6,122.5,220.5,123.3,220.4z"/>
<path class="st5" d="M486.7,12.5"/>
</svg>
